<svg width="20" height="20" viewBox="0 0 20 20" fill="none" xmlns="http://www.w3.org/2000/svg">
<path opacity="0.5" d="M18.3327 9.99984C18.3327 14.6022 14.6017 18.3332 9.99935 18.3332C5.39698 18.3332 1.66602 14.6022 1.66602 9.99984C1.66602 5.39746 5.39698 1.6665 9.99935 1.6665C14.6017 1.6665 18.3327 5.39746 18.3327 9.99984Z" fill="#1C274C"/>
<path d="M10.625 7.5C10.625 7.15482 10.3452 6.875 10 6.875C9.65482 6.875 9.375 7.15482 9.375 7.5L9.375 9.37502H7.5C7.15482 9.37502 6.875 9.65484 6.875 10C6.875 10.3452 7.15482 10.625 7.5 10.625H9.375V12.5C9.375 12.8452 9.65482 13.125 10 13.125C10.3452 13.125 10.625 12.8452 10.625 12.5L10.625 10.625H12.5C12.8452 10.625 13.125 10.3452 13.125 10C13.125 9.65484 12.8452 9.37502 12.5 9.37502H10.625V7.5Z" fill="#1C274C"/>
</svg>
