<svg width="20" height="20" viewBox="0 0 20 20" fill="none" xmlns="http://www.w3.org/2000/svg">
<path opacity="0.5" d="M10.0003 18.3334C6.07195 18.3334 4.10777 18.3334 2.88738 17.113C1.66699 15.8926 1.66699 13.9285 1.66699 10.0001C1.66699 6.07171 1.66699 4.10752 2.88738 2.88714C4.10777 1.66675 6.07195 1.66675 10.0003 1.66675C13.9287 1.66675 15.8929 1.66675 17.1133 2.88714C18.3337 4.10752 18.3337 6.07171 18.3337 10.0001C18.3337 13.9285 18.3337 15.8926 17.1133 17.113C15.8929 18.3334 13.9287 18.3334 10.0003 18.3334Z" fill="#87ADF0"/>
<path d="M10 6.875C10.3452 6.875 10.625 7.15482 10.625 7.5V9.37502H12.5C12.8452 9.37502 13.125 9.65484 13.125 10C13.125 10.3452 12.8452 10.625 12.5 10.625H10.625L10.625 12.5C10.625 12.8452 10.3452 13.125 10 13.125C9.65482 13.125 9.375 12.8452 9.375 12.5V10.625H7.5C7.15482 10.625 6.875 10.3452 6.875 10C6.875 9.65484 7.15482 9.37502 7.5 9.37502H9.375L9.375 7.5C9.375 7.15482 9.65482 6.875 10 6.875Z" fill="#87ADF0"/>
</svg>
