<svg width="16" height="16" viewBox="0 0 16 16" fill="none" xmlns="http://www.w3.org/2000/svg">
<path opacity="0.5" d="M14.6668 8.00001C14.6668 11.6819 11.6821 14.6667 8.00016 14.6667C4.31826 14.6667 1.3335 11.6819 1.3335 8.00001C1.3335 4.31811 4.31826 1.33334 8.00016 1.33334C11.6821 1.33334 14.6668 4.31811 14.6668 8.00001Z" fill="#87ADF0"/>
<path d="M11.2048 12.6741C10.2933 13.3002 9.18955 13.6667 8.00018 13.6667C6.81079 13.6667 5.70698 13.3002 4.7955 12.6741C4.39293 12.3976 4.22089 11.8708 4.45495 11.4421C4.94017 10.5535 5.93999 10 8.00015 10C10.0603 10 11.0602 10.5535 11.5454 11.4422C11.7794 11.8708 11.6074 12.3976 11.2048 12.6741Z" fill="#87ADF0"/>
<path d="M8.00019 8C9.10476 8 10.0002 7.10457 10.0002 6C10.0002 4.89543 9.10476 4 8.00019 4C6.89562 4 6.00019 4.89543 6.00019 6C6.00019 7.10457 6.89562 8 8.00019 8Z" fill="#87ADF0"/>
</svg>
