<svg width="16" height="16" viewBox="0 0 16 16" fill="none" xmlns="http://www.w3.org/2000/svg">
<path opacity="0.5" d="M7.99988 14.6667C11.224 14.6667 13.8377 12.0775 13.8377 8.88357C13.8377 5.68965 11.224 3.10046 7.99988 3.10046C4.77577 3.10046 2.16211 5.68965 2.16211 8.88357C2.16211 12.0775 4.77577 14.6667 7.99988 14.6667Z" fill="white" fill-opacity="0.4"/>
<path d="M7.99966 5.83136C8.26834 5.83136 8.48615 6.04713 8.48615 6.31329V8.68393L9.96526 10.1492C10.1552 10.3374 10.1552 10.6425 9.96526 10.8307C9.77528 11.0189 9.46726 11.0189 9.27727 10.8307L7.65567 9.22433C7.56444 9.13395 7.51318 9.01137 7.51318 8.88355V6.31329C7.51318 6.04713 7.73099 5.83136 7.99966 5.83136Z" fill="white" fill-opacity="0.4"/>
<path fill-rule="evenodd" clip-rule="evenodd" d="M5.49366 1.55988C5.63606 1.78559 5.5668 2.08291 5.33896 2.22398L2.74438 3.83039C2.51654 3.97146 2.21641 3.90284 2.07401 3.67714C1.93161 3.45144 2.00088 3.15411 2.22871 3.01305L4.82329 1.40663C5.05113 1.26557 5.35127 1.33418 5.49366 1.55988Z" fill="white" fill-opacity="0.4"/>
<path fill-rule="evenodd" clip-rule="evenodd" d="M10.5064 1.55988C10.6488 1.33418 10.9489 1.26557 11.1767 1.40663L13.7713 3.01305C13.9991 3.15411 14.0684 3.45144 13.926 3.67714C13.7836 3.90284 13.4835 3.97146 13.2556 3.83039L10.6611 2.22397C10.4332 2.08291 10.364 1.78559 10.5064 1.55988Z" fill="white" fill-opacity="0.4"/>
</svg>
