<svg width="20" height="20" viewBox="0 0 20 20" fill="none" xmlns="http://www.w3.org/2000/svg">
<path opacity="0.5" d="M10.0003 18.3333C14.0305 18.3333 17.2976 15.0969 17.2976 11.1045C17.2976 7.11206 14.0305 3.87558 10.0003 3.87558C5.9702 3.87558 2.70312 7.11206 2.70312 11.1045C2.70312 15.0969 5.9702 18.3333 10.0003 18.3333Z" fill="#87ADF0"/>
<path d="M9.9997 7.28922C10.3355 7.28922 10.6078 7.55892 10.6078 7.89162V10.8549L12.4567 12.6865C12.6942 12.9218 12.6942 13.3032 12.4567 13.5384C12.2192 13.7737 11.8342 13.7737 11.5967 13.5384L9.56971 11.5304C9.45567 11.4175 9.3916 11.2642 9.3916 11.1045V7.89162C9.3916 7.55892 9.66386 7.28922 9.9997 7.28922Z" fill="#87ADF0"/>
<path fill-rule="evenodd" clip-rule="evenodd" d="M6.86708 1.94987C7.04508 2.232 6.9585 2.60365 6.6737 2.77998L3.43047 4.78801C3.14568 4.96434 2.77051 4.87857 2.59251 4.59644C2.41452 4.31431 2.50109 3.94266 2.78589 3.76633L6.02912 1.7583C6.31391 1.58197 6.68908 1.66774 6.86708 1.94987Z" fill="#87ADF0"/>
<path fill-rule="evenodd" clip-rule="evenodd" d="M13.1329 1.94987C13.3109 1.66774 13.6861 1.58197 13.9709 1.7583L17.2141 3.76633C17.4989 3.94266 17.5855 4.31431 17.4075 4.59644C17.2295 4.87857 16.8543 4.96434 16.5695 4.78801L13.3263 2.77998C13.0415 2.60365 12.9549 2.232 13.1329 1.94987Z" fill="#87ADF0"/>
</svg>
