<svg width="20" height="20" viewBox="0 0 20 20" fill="none" xmlns="http://www.w3.org/2000/svg">
<path opacity="0.5" d="M10 18.3333C14.1421 18.3333 17.5 14.9754 17.5 10.8333C17.5 6.69118 14.1421 3.33331 10 3.33331C5.85786 3.33331 2.5 6.69118 2.5 10.8333C2.5 14.9754 5.85786 18.3333 10 18.3333Z" fill="#87ADF0"/>
<path d="M10 7.70831C10.3452 7.70831 10.625 7.98814 10.625 8.33331V10.2083H12.5C12.8452 10.2083 13.125 10.4882 13.125 10.8333C13.125 11.1785 12.8452 11.4583 12.5 11.4583H10.625V13.3333C10.625 13.6785 10.3452 13.9583 10 13.9583C9.65482 13.9583 9.375 13.6785 9.375 13.3333V11.4583H7.5C7.15482 11.4583 6.875 11.1785 6.875 10.8333C6.875 10.4882 7.15482 10.2083 7.5 10.2083H9.375V8.33331C9.375 7.98813 9.65482 7.70831 10 7.70831Z" fill="#87ADF0"/>
<path fill-rule="evenodd" clip-rule="evenodd" d="M6.86708 1.9499C7.04508 2.23203 6.9585 2.60369 6.6737 2.78002L3.43047 4.78804C3.14568 4.96437 2.77051 4.8786 2.59251 4.59647C2.41452 4.31434 2.50109 3.94269 2.78589 3.76636L6.02912 1.75833C6.31391 1.582 6.68908 1.66777 6.86708 1.9499Z" fill="#87ADF0"/>
<path fill-rule="evenodd" clip-rule="evenodd" d="M13.1329 1.9499C13.3109 1.66777 13.6861 1.582 13.9709 1.75833L17.2141 3.76636C17.4989 3.94269 17.5855 4.31434 17.4075 4.59647C17.2295 4.8786 16.8543 4.96437 16.5695 4.78804L13.3263 2.78001C13.0415 2.60368 12.9549 2.23203 13.1329 1.9499Z" fill="#87ADF0"/>
</svg>
