<svg width="16" height="16" viewBox="0 0 16 16" fill="none" xmlns="http://www.w3.org/2000/svg">
<path opacity="0.5" d="M7.99988 14.6668C11.224 14.6668 13.8377 12.0776 13.8377 8.88369C13.8377 5.68977 11.224 3.10059 7.99988 3.10059C4.77577 3.10059 2.16211 5.68977 2.16211 8.88369C2.16211 12.0776 4.77577 14.6668 7.99988 14.6668Z" fill="#FF4973"/>
<path d="M7.99966 5.83105C8.26834 5.83105 8.48615 6.04682 8.48615 6.31298V8.68363L9.96526 10.1489C10.1552 10.3371 10.1552 10.6422 9.96526 10.8304C9.77528 11.0186 9.46726 11.0186 9.27727 10.8304L7.65567 9.22402C7.56444 9.13364 7.51318 9.01106 7.51318 8.88325V6.31298C7.51318 6.04682 7.73099 5.83105 7.99966 5.83105Z" fill="#FF4973"/>
<path fill-rule="evenodd" clip-rule="evenodd" d="M5.49366 1.55958C5.63606 1.78528 5.5668 2.08261 5.33896 2.22367L2.74438 3.83009C2.51654 3.97115 2.21641 3.90254 2.07401 3.67683C1.93161 3.45113 2.00088 3.15381 2.22871 3.01274L4.82329 1.40633C5.05113 1.26526 5.35127 1.33388 5.49366 1.55958Z" fill="#FF4973"/>
<path fill-rule="evenodd" clip-rule="evenodd" d="M10.5064 1.55958C10.6488 1.33387 10.9489 1.26526 11.1767 1.40633L13.7713 3.01274C13.9991 3.15381 14.0684 3.45113 13.926 3.67684C13.7836 3.90254 13.4835 3.97115 13.2556 3.83009L10.6611 2.22367C10.4332 2.08261 10.364 1.78528 10.5064 1.55958Z" fill="#FF4973"/>
</svg>
