<svg width="20" height="20" viewBox="0 0 20 20" fill="none" xmlns="http://www.w3.org/2000/svg">
<path opacity="0.5" d="M15.6243 7.50008V8.08683C15.6243 8.79099 15.8252 9.47939 16.2018 10.0653L17.1247 11.501C17.9676 12.8125 17.3241 14.595 15.858 15.0097C12.0227 16.0946 7.97728 16.0946 4.14197 15.0097C2.67587 14.595 2.03235 12.8125 2.8753 11.501L3.79816 10.0653C4.17476 9.47939 4.37573 8.79099 4.37573 8.08683V7.50008C4.37573 4.27842 6.8938 1.66675 10 1.66675C13.1062 1.66675 15.6243 4.27842 15.6243 7.50008Z" fill="#FFC000"/>
<path d="M6.03613 15.4543C6.57858 17.1253 8.14822 18.3333 10 18.3333C11.8518 18.3333 13.4214 17.1253 13.9639 15.4543C11.3427 15.9462 8.65733 15.9462 6.03613 15.4543Z" fill="#FFC000"/>
</svg>
