<svg width="20" height="20" viewBox="0 0 20 20" fill="none" xmlns="http://www.w3.org/2000/svg">
<path fill-rule="evenodd" clip-rule="evenodd" d="M7.27606 4.80976L4.72428 8.26229C3.65368 9.71081 3.11838 10.4351 3.41334 11.0045C3.41822 11.014 3.42325 11.0233 3.42842 11.0326C3.74088 11.5934 4.66541 11.5934 6.51447 11.5934C7.542 11.5934 8.05576 11.5934 8.37802 11.8965L8.39471 11.9125L11.6213 8.10421L11.6046 8.08817C11.2892 7.77854 11.2892 7.28492 11.2892 6.29767V6.03959C11.2892 3.3024 11.2892 1.93381 10.5197 1.698C9.75027 1.4622 8.92553 2.57805 7.27606 4.80976Z" fill="#0B0E21"/>
<path opacity="0.5" d="M8.71093 13.7023L8.71093 13.9603C8.71089 16.6975 8.71087 18.0661 9.48034 18.302C10.2498 18.5378 11.0746 17.4219 12.7241 15.1902L15.2758 11.7377C16.3465 10.2892 16.8818 9.56493 16.5868 8.99546C16.5819 8.98603 16.5769 8.97667 16.5717 8.96739C16.2593 8.4066 15.3347 8.4066 13.4857 8.4066C12.4582 8.4066 11.9444 8.4066 11.6221 8.10352L8.39551 11.9118C8.71096 12.2215 8.71095 12.7151 8.71093 13.7023Z" fill="#0B0E21"/>
</svg>
