<svg width="16" height="16" viewBox="0 0 16 16" fill="none" xmlns="http://www.w3.org/2000/svg">
<path fill-rule="evenodd" clip-rule="evenodd" d="M5.82095 3.84747L3.77952 6.60949C2.92304 7.7683 2.4948 8.34771 2.73077 8.80328C2.73467 8.81082 2.7387 8.81831 2.74284 8.82574C2.9928 9.27436 3.73243 9.27437 5.21167 9.27437C6.03369 9.27437 6.44471 9.27437 6.70251 9.51684L6.71587 9.52967L9.29717 6.48303L9.28382 6.47019C9.03146 6.22249 9.03146 5.82759 9.03146 5.0378V4.83133C9.03146 2.64158 9.03146 1.5467 8.41588 1.35806C7.80031 1.16942 7.14052 2.0621 5.82095 3.84747Z" fill="#87ADF0"/>
<path opacity="0.5" d="M6.96865 10.9622L6.96865 11.1686C6.96861 13.3584 6.9686 14.4533 7.58417 14.6419C8.19975 14.8306 8.85955 13.9379 10.1791 12.1525L12.2206 9.3905C13.0771 8.23169 13.5053 7.65229 13.2694 7.19671C13.2654 7.18917 13.2614 7.18168 13.2573 7.17425C13.0073 6.72562 12.2677 6.72562 10.7884 6.72562C9.96642 6.72562 9.55542 6.72562 9.29761 6.48315L6.71631 9.5298C6.96867 9.7775 6.96866 10.1724 6.96865 10.9622Z" fill="#87ADF0"/>
</svg>
