<svg width="20" height="20" viewBox="0 0 20 20" fill="none" xmlns="http://www.w3.org/2000/svg">
<path fill-rule="evenodd" clip-rule="evenodd" d="M7.27704 4.80943L4.72526 8.26196C3.65465 9.71047 3.11935 10.4347 3.41431 11.0042C3.4192 11.0136 3.42422 11.023 3.4294 11.0323C3.74186 11.593 4.66639 11.593 6.51545 11.593C7.54297 11.593 8.05674 11.5931 8.379 11.8961L8.39569 11.9122L11.6223 8.10387L11.6056 8.08784C11.2902 7.77821 11.2902 7.28458 11.2902 6.29734V6.03926C11.2902 3.30207 11.2902 1.93347 10.5207 1.69767C9.75124 1.46186 8.92651 2.57772 7.27704 4.80943Z" fill="#FFC000"/>
<path opacity="0.5" d="M8.70996 13.7027L8.70995 13.9606C8.70991 16.6979 8.70989 18.0665 9.47936 18.3023C10.2488 18.5381 11.0736 17.4222 12.7231 15.1905L15.2749 11.738C16.3455 10.2895 16.8808 9.56527 16.5858 8.9958C16.581 8.98637 16.5759 8.97701 16.5707 8.96772C16.2583 8.40694 15.3338 8.40694 13.4847 8.40694C12.4572 8.40694 11.9434 8.40694 11.6212 8.10385L8.39453 11.9122C8.70998 12.2218 8.70997 12.7154 8.70996 13.7027Z" fill="#FFC000"/>
</svg>
