<svg width="16" height="16" viewBox="0 0 16 16" fill="none" xmlns="http://www.w3.org/2000/svg">
<path d="M4.62702 1.33325C4.90426 1.33325 5.129 1.54939 5.129 1.81601V2.78983C5.57427 2.78153 6.07338 2.78153 6.63496 2.78153H9.31221C9.87379 2.78153 10.3729 2.78153 10.8182 2.78983V1.81601C10.8182 1.54939 11.0429 1.33325 11.3202 1.33325C11.5974 1.33325 11.8221 1.54939 11.8221 1.81601V2.83254C12.7855 2.90673 13.4179 3.0888 13.8826 3.53564C14.3472 3.98248 14.5365 4.59069 14.6137 5.51716L14.6668 5.99992H1.94987H1.3335V5.51716C1.41064 4.59069 1.59996 3.98248 2.0646 3.53564C2.52923 3.0888 3.16167 2.90673 4.12503 2.83254V1.81601C4.12503 1.54939 4.34978 1.33325 4.62702 1.33325Z" fill="#87ADF0"/>
<path opacity="0.5" d="M14.6667 9.33339V8.00005C14.6667 7.4407 14.6645 6.44351 14.6559 6H1.33977C1.33117 6.44351 1.33334 7.4407 1.33334 8.00005V9.33339C1.33334 11.8475 1.33334 13.1046 2.11439 13.8857C2.89544 14.6667 4.15252 14.6667 6.66668 14.6667H9.33334C11.8475 14.6667 13.1046 14.6667 13.8856 13.8857C14.6667 13.1046 14.6667 11.8475 14.6667 9.33339Z" fill="#87ADF0"/>
</svg>
