<svg width="20" height="20" viewBox="0 0 20 20" fill="none" xmlns="http://www.w3.org/2000/svg">
<g opacity="0.3">
<path d="M5.78389 1.66669C6.13044 1.66669 6.41138 1.93686 6.41138 2.27014V3.48741C6.96797 3.47703 7.59185 3.47703 8.29382 3.47703H11.6404C12.3424 3.47703 12.9662 3.47703 13.5228 3.48741V2.27014C13.5228 1.93686 13.8038 1.66669 14.1503 1.66669C14.4969 1.66669 14.7778 1.93686 14.7778 2.27014V3.5408C15.982 3.63354 16.7725 3.86113 17.3533 4.41968C17.9341 4.97823 18.1708 5.73849 18.2672 6.89657L18.3337 7.50002H2.43745H1.66699V6.89657C1.76342 5.73849 2.00007 4.97823 2.58087 4.41968C3.16167 3.86113 3.95221 3.63354 5.15641 3.5408V2.27014C5.15641 1.93686 5.43735 1.66669 5.78389 1.66669Z" fill="white"/>
<path opacity="0.5" d="M18.3331 11.6667V10C18.3331 9.30081 18.3304 8.05433 18.3196 7.49994H1.67447C1.66372 8.05433 1.66643 9.30081 1.66643 10V11.6667C1.66643 14.8094 1.66643 16.3807 2.64274 17.357C3.61906 18.3333 5.1904 18.3333 8.3331 18.3333H11.6664C14.8091 18.3333 16.3805 18.3333 17.3568 17.357C18.3331 16.3807 18.3331 14.8094 18.3331 11.6667Z" fill="white"/>
</g>
</svg>
