<svg width="16" height="16" viewBox="0 0 16 16" fill="none" xmlns="http://www.w3.org/2000/svg">
<path d="M4.62702 1.33331C4.90426 1.33331 5.129 1.54945 5.129 1.81607V2.78989C5.57427 2.78159 6.07338 2.78159 6.63496 2.78159H9.31221C9.87379 2.78159 10.3729 2.78159 10.8182 2.78989V1.81607C10.8182 1.54945 11.0429 1.33331 11.3202 1.33331C11.5974 1.33331 11.8221 1.54945 11.8221 1.81607V2.8326C12.7855 2.90679 13.4179 3.08886 13.8826 3.5357C14.3472 3.98255 14.5365 4.59076 14.6137 5.51722L14.6668 5.99998H1.94987H1.3335V5.51722C1.41064 4.59076 1.59996 3.98255 2.0646 3.5357C2.52923 3.08886 3.16167 2.90679 4.12503 2.8326V1.81607C4.12503 1.54945 4.34978 1.33331 4.62702 1.33331Z" fill="#87ADF0"/>
<path opacity="0.5" d="M14.6667 9.33333V7.99999C14.6667 7.44064 14.6645 6.44345 14.6559 5.99994H1.33977C1.33117 6.44345 1.33334 7.44064 1.33334 7.99999V9.33333C1.33334 11.8475 1.33334 13.1046 2.11439 13.8856C2.89544 14.6667 4.15252 14.6667 6.66668 14.6667H9.33334C11.8475 14.6667 13.1046 14.6667 13.8856 13.8856C14.6667 13.1046 14.6667 11.8475 14.6667 9.33333Z" fill="#87ADF0"/>
</svg>
