<svg width="20" height="20" viewBox="0 0 20 20" fill="none" xmlns="http://www.w3.org/2000/svg">
<path opacity="0.5" d="M10.8192 18.7447L11.2668 17.9891C11.614 17.403 11.7875 17.1099 12.0663 16.9479C12.3451 16.7858 12.6962 16.7798 13.3982 16.7677C14.4347 16.7498 15.0847 16.6864 15.6299 16.4607C16.6414 16.042 17.445 15.239 17.864 14.2282C18.0063 13.8848 18.0841 13.4998 18.1267 13.0028C18.1569 12.6513 18.1719 12.4755 18.0776 12.3312C17.9832 12.1868 17.8013 12.125 17.4375 12.0013C16.1198 11.5533 13.3307 10.5034 11.7493 9.16648C9.95776 7.65176 8.35017 4.61333 7.72355 3.33636C7.58082 3.04549 7.50945 2.90006 7.38608 2.82427C7.2627 2.74848 7.10655 2.75049 6.79426 2.75452C5.17469 2.77541 4.4229 2.87565 3.63716 3.35683C3.08171 3.69698 2.6147 4.16367 2.27432 4.71874C1.66602 5.71073 1.66602 7.0611 1.66602 9.76184V10.5869C1.66602 12.509 1.66602 13.4701 1.98024 14.2282C2.39922 15.239 3.20284 16.042 4.21432 16.4607C4.75948 16.6864 5.4095 16.7498 6.44594 16.7677C7.14799 16.7798 7.49902 16.7858 7.77782 16.9479C8.05663 17.1099 8.2302 17.403 8.57735 17.9891L9.02492 18.7447C9.42382 19.4182 10.4203 19.4182 10.8192 18.7447Z" fill="#87ADF0"/>
<path fill-rule="evenodd" clip-rule="evenodd" d="M12.3934 0.199357C12.6729 0.46285 12.6701 0.887422 12.3871 1.14766L11.4686 1.99221C12.2677 1.99973 13.0362 2.01786 13.7298 2.06157C14.3263 2.09915 14.8849 2.15658 15.3716 2.24674C15.8483 2.33505 16.3077 2.46367 16.6725 2.66926C17.3507 3.05139 17.9217 3.57617 18.3383 4.2013C18.7391 4.80273 18.9157 5.48253 19.0004 6.3023C19.0833 7.10432 19.0833 8.1066 19.0833 9.37749V9.41277C19.0833 9.78311 18.7609 10.0833 18.3631 10.0833C17.9653 10.0833 17.6429 9.78311 17.6429 9.41277C17.6429 8.09884 17.6421 7.16106 17.5666 6.43081C17.4921 5.7109 17.3503 5.26252 17.1143 4.90838C16.8182 4.46413 16.4115 4.0898 15.9267 3.81661C15.7719 3.72941 15.5028 3.63846 15.0905 3.56209C14.6882 3.48757 14.1974 3.43523 13.6325 3.39964C12.98 3.35852 12.2522 3.34101 11.4804 3.33355L12.3871 4.16724C12.6701 4.42748 12.6729 4.85205 12.3934 5.11554C12.1139 5.37904 11.6578 5.38167 11.3748 5.12143L9.21412 3.13455C9.07711 3.00856 9 2.83674 9 2.65745C9 2.47816 9.07711 2.30634 9.21412 2.18035L11.3748 0.193471C11.6578 -0.0667716 12.1139 -0.0641363 12.3934 0.199357Z" fill="#87ADF0"/>
</svg>
