<svg width="20" height="20" viewBox="0 0 20 20" fill="none" xmlns="http://www.w3.org/2000/svg">
<path opacity="0.5" d="M10.0003 18.3334C6.07195 18.3334 4.10777 18.3334 2.88738 17.113C1.66699 15.8926 1.66699 13.9285 1.66699 10.0001C1.66699 6.07171 1.66699 4.10752 2.88738 2.88714C4.10777 1.66675 6.07195 1.66675 10.0003 1.66675C13.9287 1.66675 15.8929 1.66675 17.1133 2.88714C18.3337 4.10752 18.3337 6.07171 18.3337 10.0001C18.3337 13.9285 18.3337 15.8926 17.1133 17.113C15.8929 18.3334 13.9287 18.3334 10.0003 18.3334Z" fill="#00FF95"/>
<path d="M13.3583 7.47481C13.6024 7.71888 13.6024 8.11461 13.3583 8.35869L9.19162 12.5254C8.94754 12.7694 8.55181 12.7694 8.30773 12.5254L6.64107 10.8587C6.39699 10.6146 6.39699 10.2189 6.64107 9.97481C6.88514 9.73073 7.28087 9.73073 7.52495 9.97481L8.74967 11.1995L12.4744 7.47481C12.7185 7.23073 13.1142 7.23073 13.3583 7.47481Z" fill="#00FF95"/>
</svg>
