<svg width="16" height="16" viewBox="0 0 16 16" fill="none" xmlns="http://www.w3.org/2000/svg">
<path opacity="0.5" d="M8.00016 14.6666C4.85747 14.6666 3.28612 14.6666 2.30981 13.6903C1.3335 12.714 1.3335 11.1426 1.3335 7.99992C1.3335 4.85722 1.3335 3.28587 2.30981 2.30956C3.28612 1.33325 4.85747 1.33325 8.00016 1.33325C11.1429 1.33325 12.7142 1.33325 13.6905 2.30956C14.6668 3.28587 14.6668 4.85722 14.6668 7.99992C14.6668 11.1426 14.6668 12.714 13.6905 13.6903C12.7142 14.6666 11.1429 14.6666 8.00016 14.6666Z" fill="white" fill-opacity="0.3"/>
<path d="M10.6867 5.9797C10.882 6.17496 10.882 6.49154 10.6867 6.68681L7.35339 10.0201C7.15813 10.2154 6.84155 10.2154 6.64628 10.0201L5.31295 8.68681C5.11769 8.49154 5.11769 8.17496 5.31295 7.9797C5.50821 7.78444 5.8248 7.78444 6.02006 7.9797L6.99984 8.95948L9.97962 5.9797C10.1749 5.78444 10.4915 5.78444 10.6867 5.9797Z" fill="white" fill-opacity="0.3"/>
</svg>
