<svg width="20" height="20" viewBox="0 0 20 20" fill="none" xmlns="http://www.w3.org/2000/svg">
<path opacity="0.5" d="M17.5 13.332V8.33205C17.5 5.97503 17.5 4.79651 16.7678 4.06428C16.1274 3.42396 15.1459 3.34359 13.3333 3.3335H6.66667C4.85414 3.34359 3.87255 3.42396 3.23223 4.06428C2.5 4.79651 2.5 5.97503 2.5 8.33205V13.332C2.5 15.6891 2.5 16.8676 3.23223 17.5998C3.96447 18.332 5.14297 18.332 7.49999 18.332H7.5H12.5H12.5C14.857 18.332 16.0355 18.332 16.7678 17.5998C17.5 16.8676 17.5 15.6891 17.5 13.332Z" fill="#1C274C"/>
<path d="M6.66699 2.9165C6.66699 2.22615 7.22664 1.6665 7.91699 1.6665H12.0837C12.774 1.6665 13.3337 2.22615 13.3337 2.9165V3.74984C13.3337 4.44019 12.774 4.99984 12.0837 4.99984H7.91699C7.22664 4.99984 6.66699 4.44019 6.66699 3.74984V2.9165Z" fill="#1C274C"/>
<path fill-rule="evenodd" clip-rule="evenodd" d="M10 7.7085C10.3452 7.7085 10.625 7.98832 10.625 8.3335V10.2085L12.5 10.2085C12.8452 10.2085 13.125 10.4883 13.125 10.8335C13.125 11.1787 12.8452 11.4585 12.5 11.4585L10.625 11.4585L10.625 13.3335C10.625 13.6787 10.3452 13.9585 10 13.9585C9.65482 13.9585 9.375 13.6787 9.375 13.3335L9.375 11.4585H7.5C7.15482 11.4585 6.875 11.1787 6.875 10.8335C6.875 10.4883 7.15482 10.2085 7.5 10.2085L9.375 10.2085L9.375 8.3335C9.375 7.98832 9.65482 7.7085 10 7.7085Z" fill="#1C274C"/>
</svg>
