<svg width="20" height="20" viewBox="0 0 20 20" fill="none" xmlns="http://www.w3.org/2000/svg">
<path opacity="0.5" d="M17.5 13.3318V8.3318C17.5 5.97478 17.5 4.79627 16.7678 4.06404C16.1274 3.42372 15.1459 3.34334 13.3333 3.33325H6.66667C4.85414 3.34334 3.87255 3.42372 3.23223 4.06404C2.5 4.79627 2.5 5.97478 2.5 8.3318V13.3318C2.5 15.6888 2.5 16.8673 3.23223 17.5996C3.96447 18.3318 5.14297 18.3318 7.49999 18.3318H7.5H12.5H12.5C14.857 18.3318 16.0355 18.3318 16.7678 17.5996C17.5 16.8673 17.5 15.6888 17.5 13.3318Z" fill="#87ADF0"/>
<path d="M6.66699 2.91675C6.66699 2.22639 7.22664 1.66675 7.91699 1.66675H12.0837C12.774 1.66675 13.3337 2.22639 13.3337 2.91675V3.75008C13.3337 4.44044 12.774 5.00008 12.0837 5.00008H7.91699C7.22664 5.00008 6.66699 4.44044 6.66699 3.75008V2.91675Z" fill="#87ADF0"/>
<path fill-rule="evenodd" clip-rule="evenodd" d="M5.20801 8.75C5.20801 8.40482 5.48783 8.125 5.83301 8.125H14.1663C14.5115 8.125 14.7913 8.40482 14.7913 8.75C14.7913 9.09518 14.5115 9.375 14.1663 9.375H5.83301C5.48783 9.375 5.20801 9.09518 5.20801 8.75ZM6.04134 11.6667C6.04134 11.3215 6.32116 11.0417 6.66634 11.0417H13.333C13.6782 11.0417 13.958 11.3215 13.958 11.6667C13.958 12.0118 13.6782 12.2917 13.333 12.2917H6.66634C6.32116 12.2917 6.04134 12.0118 6.04134 11.6667ZM6.87467 14.5833C6.87467 14.2382 7.1545 13.9583 7.49967 13.9583H12.4997C12.8449 13.9583 13.1247 14.2382 13.1247 14.5833C13.1247 14.9285 12.8449 15.2083 12.4997 15.2083H7.49967C7.1545 15.2083 6.87467 14.9285 6.87467 14.5833Z" fill="#87ADF0"/>
</svg>
