<svg width="20" height="20" viewBox="0 0 20 20" fill="none" xmlns="http://www.w3.org/2000/svg">
<path opacity="0.5" d="M17.5 13.332V8.33205C17.5 5.97503 17.5 4.79651 16.7678 4.06428C16.1274 3.42396 15.1459 3.34359 13.3333 3.3335H6.66667C4.85414 3.34359 3.87255 3.42396 3.23223 4.06428C2.5 4.79651 2.5 5.97503 2.5 8.33205V13.332C2.5 15.6891 2.5 16.8676 3.23223 17.5998C3.96447 18.332 5.14297 18.332 7.49999 18.332H7.5H12.5H12.5C14.857 18.332 16.0355 18.332 16.7678 17.5998C17.5 16.8676 17.5 15.6891 17.5 13.332Z" fill="#87ADF0"/>
<path d="M6.66699 2.9165C6.66699 2.22615 7.22664 1.6665 7.91699 1.6665H12.0837C12.774 1.6665 13.3337 2.22615 13.3337 2.9165V3.74984C13.3337 4.44019 12.774 4.99984 12.0837 4.99984H7.91699C7.22664 4.99984 6.66699 4.44019 6.66699 3.74984V2.9165Z" fill="#87ADF0"/>
<path fill-rule="evenodd" clip-rule="evenodd" d="M5.20801 8.75C5.20801 8.40482 5.48783 8.125 5.83301 8.125H6.24967C6.59485 8.125 6.87467 8.40482 6.87467 8.75C6.87467 9.09518 6.59485 9.375 6.24967 9.375H5.83301C5.48783 9.375 5.20801 9.09518 5.20801 8.75ZM8.12467 8.75C8.12467 8.40482 8.4045 8.125 8.74967 8.125H14.1663C14.5115 8.125 14.7913 8.40482 14.7913 8.75C14.7913 9.09518 14.5115 9.375 14.1663 9.375H8.74967C8.4045 9.375 8.12467 9.09518 8.12467 8.75ZM5.20801 11.6667C5.20801 11.3215 5.48783 11.0417 5.83301 11.0417H6.24967C6.59485 11.0417 6.87467 11.3215 6.87467 11.6667C6.87467 12.0118 6.59485 12.2917 6.24967 12.2917H5.83301C5.48783 12.2917 5.20801 12.0118 5.20801 11.6667ZM8.12467 11.6667C8.12467 11.3215 8.4045 11.0417 8.74967 11.0417H14.1663C14.5115 11.0417 14.7913 11.3215 14.7913 11.6667C14.7913 12.0118 14.5115 12.2917 14.1663 12.2917H8.74967C8.4045 12.2917 8.12467 12.0118 8.12467 11.6667ZM5.20801 14.5833C5.20801 14.2382 5.48783 13.9583 5.83301 13.9583H6.24967C6.59485 13.9583 6.87467 14.2382 6.87467 14.5833C6.87467 14.9285 6.59485 15.2083 6.24967 15.2083H5.83301C5.48783 15.2083 5.20801 14.9285 5.20801 14.5833ZM8.12467 14.5833C8.12467 14.2382 8.4045 13.9583 8.74967 13.9583H14.1663C14.5115 13.9583 14.7913 14.2382 14.7913 14.5833C14.7913 14.9285 14.5115 15.2083 14.1663 15.2083H8.74967C8.4045 15.2083 8.12467 14.9285 8.12467 14.5833Z" fill="#87ADF0"/>
</svg>
