<svg width="16" height="16" viewBox="0 0 16 16" fill="none" xmlns="http://www.w3.org/2000/svg">
<path opacity="0.5" d="M14 10.6656V6.66559V6.66558C14 4.77997 14 3.83716 13.4142 3.25138C12.902 2.73912 12.1167 2.67482 10.6667 2.66675H5.33333C3.88332 2.67482 3.09804 2.73912 2.58579 3.25138C2 3.83716 2 4.77997 2 6.66559V10.6656C2 12.5512 2 13.494 2.58579 14.0798C3.17157 14.6656 4.11438 14.6656 6 14.6656H10C11.8856 14.6656 12.8284 14.6656 13.4142 14.0798C14 13.494 14 12.5512 14 10.6656V10.6656Z" fill="#87ADF0"/>
<path d="M5.3335 2.33325C5.3335 1.78097 5.78121 1.33325 6.3335 1.33325H9.66683C10.2191 1.33325 10.6668 1.78097 10.6668 2.33325V2.99992C10.6668 3.5522 10.2191 3.99992 9.66683 3.99992H6.3335C5.78121 3.99992 5.3335 3.5522 5.3335 2.99992V2.33325Z" fill="#87ADF0"/>
<path fill-rule="evenodd" clip-rule="evenodd" d="M10.3655 6.99209C10.5539 7.19397 10.543 7.51036 10.3412 7.69878L7.48402 10.3654C7.29191 10.5447 6.9938 10.5447 6.8017 10.3654L5.65884 9.29878C5.45697 9.11036 5.44606 8.79397 5.63447 8.59209C5.82289 8.39022 6.13929 8.37931 6.34116 8.56773L7.14286 9.31598L9.65884 6.96773C9.86072 6.77931 10.1771 6.79022 10.3655 6.99209Z" fill="#87ADF0"/>
</svg>
