<svg width="16" height="16" viewBox="0 0 16 16" fill="none" xmlns="http://www.w3.org/2000/svg">
<path opacity="0.5" d="M7.99967 14.6666C11.6816 14.6666 14.6663 11.6818 14.6663 7.99992C14.6663 4.31802 11.6816 1.33325 7.99967 1.33325C4.31778 1.33325 1.33301 4.31802 1.33301 7.99992C1.33301 11.6818 4.31778 14.6666 7.99967 14.6666Z" fill="#FF4973"/>
<path fill-rule="evenodd" clip-rule="evenodd" d="M8 4.83325C8.27614 4.83325 8.5 5.05711 8.5 5.33325V7.79281L10.0202 9.31303C10.2155 9.50829 10.2155 9.82488 10.0202 10.0201C9.82496 10.2154 9.50838 10.2154 9.31311 10.0201L7.64645 8.35347C7.55268 8.2597 7.5 8.13253 7.5 7.99992V5.33325C7.5 5.05711 7.72386 4.83325 8 4.83325Z" fill="#FF4973"/>
</svg>
