<svg width="20" height="20" viewBox="0 0 20 20" fill="none" xmlns="http://www.w3.org/2000/svg">
<path opacity="0.5" d="M10.0003 18.3334C14.6027 18.3334 18.3337 14.6024 18.3337 10C18.3337 5.39765 14.6027 1.66669 10.0003 1.66669C5.39795 1.66669 1.66699 5.39765 1.66699 10C1.66699 14.6024 5.39795 18.3334 10.0003 18.3334Z" fill="white" fill-opacity="0.3"/>
<path fill-rule="evenodd" clip-rule="evenodd" d="M10 6.04169C10.3452 6.04169 10.625 6.32151 10.625 6.66669V9.74114L12.5253 11.6414C12.7694 11.8855 12.7694 12.2812 12.5253 12.5253C12.2812 12.7694 11.8855 12.7694 11.6414 12.5253L9.55806 10.442C9.44085 10.3248 9.375 10.1658 9.375 10V6.66669C9.375 6.32151 9.65482 6.04169 10 6.04169Z" fill="white" fill-opacity="0.3"/>
</svg>
