<svg width="16" height="16" viewBox="0 0 16 16" fill="none" xmlns="http://www.w3.org/2000/svg">
<path opacity="0.5" d="M7.99967 14.6663C11.6816 14.6663 14.6663 11.6816 14.6663 7.99967C14.6663 4.31778 11.6816 1.33301 7.99967 1.33301C4.31778 1.33301 1.33301 4.31778 1.33301 7.99967C1.33301 11.6816 4.31778 14.6663 7.99967 14.6663Z" fill="#FFC000"/>
<path fill-rule="evenodd" clip-rule="evenodd" d="M8 4.83301C8.27614 4.83301 8.5 5.05687 8.5 5.33301V7.79257L10.0202 9.31279C10.2155 9.50805 10.2155 9.82463 10.0202 10.0199C9.82496 10.2152 9.50838 10.2152 9.31311 10.0199L7.64645 8.35323C7.55268 8.25946 7.5 8.13228 7.5 7.99967V5.33301C7.5 5.05687 7.72386 4.83301 8 4.83301Z" fill="#FFC000"/>
</svg>
