<svg width="20" height="20" viewBox="0 0 20 20" fill="none" xmlns="http://www.w3.org/2000/svg">
<path opacity="0.5" d="M10.0003 18.3334C6.07195 18.3334 4.10777 18.3334 2.88738 17.113C1.66699 15.8926 1.66699 13.9285 1.66699 10.0001C1.66699 6.07171 1.66699 4.10752 2.88738 2.88714C4.10777 1.66675 6.07195 1.66675 10.0003 1.66675C13.9287 1.66675 15.8929 1.66675 17.1133 2.88714C18.3337 4.10752 18.3337 6.07171 18.3337 10.0001C18.3337 13.9285 18.3337 15.8926 17.1133 17.113C15.8929 18.3334 13.9287 18.3334 10.0003 18.3334Z" fill="#FF4973"/>
<path d="M7.47505 7.47481C7.71913 7.23073 8.11486 7.23073 8.35893 7.47481L10.0003 9.11621L11.6417 7.47482C11.8858 7.23075 12.2815 7.23075 12.5256 7.47482C12.7697 7.7189 12.7697 8.11463 12.5256 8.35871L10.8842 10.0001L12.5256 11.6415C12.7697 11.8855 12.7697 12.2813 12.5256 12.5253C12.2815 12.7694 11.8858 12.7694 11.6417 12.5253L10.0003 10.884L8.35895 12.5254C8.11487 12.7694 7.71915 12.7694 7.47507 12.5254C7.23099 12.2813 7.23099 11.8856 7.47507 11.6415L9.11645 10.0001L7.47505 8.35869C7.23097 8.11461 7.23097 7.71888 7.47505 7.47481Z" fill="#FF4973"/>
</svg>
