<svg width="20" height="20" viewBox="0 0 20 20" fill="none" xmlns="http://www.w3.org/2000/svg">
<path opacity="0.5" d="M18.3327 9.99999C18.3327 14.6024 14.6017 18.3333 9.99935 18.3333C5.39698 18.3333 1.66602 14.6024 1.66602 9.99999C1.66602 5.39762 5.39698 1.66666 9.99935 1.66666C14.6017 1.66666 18.3327 5.39762 18.3327 9.99999Z" fill="#FF4973"/>
<path d="M7.47407 7.47471C7.71815 7.23064 8.11388 7.23064 8.35796 7.47471L9.99936 9.11611L11.6407 7.47473C11.8848 7.23065 12.2805 7.23065 12.5246 7.47473C12.7687 7.71881 12.7687 8.11454 12.5246 8.35862L10.8832 10L12.5246 11.6414C12.7687 11.8854 12.7687 12.2812 12.5246 12.5252C12.2805 12.7693 11.8848 12.7693 11.6407 12.5252L9.99936 10.8839L8.35798 12.5253C8.1139 12.7693 7.71817 12.7693 7.47409 12.5253C7.23001 12.2812 7.23001 11.8855 7.47409 11.6414L9.11547 10L7.47407 8.3586C7.23 8.11452 7.23 7.71879 7.47407 7.47471Z" fill="#FF4973"/>
</svg>
