<svg width="20" height="20" viewBox="0 0 20 20" fill="none" xmlns="http://www.w3.org/2000/svg">
<path d="M5.5 9.49783C5.5 7.22601 5.5 6.09009 6.20294 5.38433C6.90589 4.67856 8.03726 4.67856 10.3 4.67856H12.7C14.9627 4.67856 16.0941 4.67856 16.7971 5.38433C17.5 6.09009 17.5 7.22601 17.5 9.49784V13.5139C17.5 15.7857 17.5 16.9216 16.7971 17.6274C16.0941 18.3332 14.9627 18.3332 12.7 18.3332H10.3C8.03726 18.3332 6.90589 18.3332 6.20294 17.6274C5.5 16.9216 5.5 15.7857 5.5 13.5139V9.49783Z" fill="white" fill-opacity="0.3"/>
<path opacity="0.5" d="M3.47631 2.64297C2.5 3.61928 2.5 5.19063 2.5 8.33332V9.99999C2.5 13.1427 2.5 14.714 3.47631 15.6903C3.99094 16.205 4.67091 16.4483 5.65921 16.5634C5.49968 15.8628 5.49967 14.8996 5.49967 13.5139V9.49781C5.49967 7.22599 5.49967 6.09007 6.20262 5.3843C6.90556 4.67854 8.03693 4.67854 10.2997 4.67854H12.6997C14.0762 4.67854 15.034 4.67854 15.7314 4.83744C15.6169 3.84287 15.3737 3.15961 14.857 2.64297C13.8807 1.66666 12.3094 1.66666 9.16667 1.66666C6.02397 1.66666 4.45262 1.66666 3.47631 2.64297Z" fill="white" fill-opacity="0.3"/>
</svg>
