<svg width="20" height="20" viewBox="0 0 20 20" fill="none" xmlns="http://www.w3.org/2000/svg">
<g clip-path="url(#clip0_36_1562)">
<path d="M18.0078 11.3013L18.1988 9.27195C18.3488 7.6781 18.4238 6.88118 18.1512 6.55175C18.0037 6.37354 17.8031 6.26436 17.5887 6.24552C17.1923 6.2107 16.6944 6.77744 15.6988 7.91091C15.1839 8.4971 14.9264 8.79019 14.6392 8.83558C14.48 8.86073 14.3179 8.83487 14.1709 8.76092C13.9057 8.62745 13.7289 8.26512 13.3753 7.54045L11.5112 3.72073C10.843 2.35137 10.5088 1.66669 10.0003 1.66669C9.49183 1.66669 9.1577 2.35137 8.48944 3.72074L6.62538 7.54045C6.27174 8.26512 6.09492 8.62745 5.82971 8.76092C5.68276 8.83487 5.52061 8.86073 5.36147 8.83558C5.07426 8.79019 4.8168 8.4971 4.30188 7.91091C3.30623 6.77744 2.8084 6.2107 2.41198 6.24552C2.19754 6.26436 1.99697 6.37354 1.84948 6.55175C1.57682 6.88118 1.65183 7.6781 1.80183 9.27195L1.99283 11.3013C2.30754 14.6452 2.46489 16.3171 3.4504 17.3252C4.43592 18.3334 5.91296 18.3334 8.86706 18.3334H11.1336C14.0877 18.3334 15.5647 18.3334 16.5502 17.3252C17.5358 16.3171 17.6931 14.6452 18.0078 11.3013Z" stroke="#87ADF0" stroke-width="1.5"/>
<path d="M7.5 15H12.5" stroke="#87ADF0" stroke-width="1.5" stroke-linecap="round"/>
</g>
<defs>
<clipPath id="clip0_36_1562">
<rect width="20" height="20" fill="white"/>
</clipPath>
</defs>
</svg>
