<svg width="20" height="20" viewBox="0 0 20 20" fill="none" xmlns="http://www.w3.org/2000/svg">
<path opacity="0.5" fill-rule="evenodd" clip-rule="evenodd" d="M2.19403 13.3334H17.8056C17.8725 12.7345 17.9358 12.0611 18.0073 11.3014L18.1983 9.27201C18.3483 7.67816 18.4233 6.88124 18.1507 6.55181C18.0032 6.37361 17.8026 6.26442 17.5882 6.24558C17.1918 6.21076 16.6939 6.7775 15.6983 7.91097C15.1834 8.49716 14.9259 8.79025 14.6387 8.83564C14.4796 8.86079 14.3174 8.83494 14.1705 8.76098C13.9052 8.62752 13.7284 8.26518 13.3748 7.54051L11.5107 3.72079C10.8425 2.35143 10.5083 1.66675 9.99984 1.66675C9.49134 1.66675 9.15721 2.35143 8.48895 3.72079L6.6249 7.54051C6.27125 8.26518 6.09443 8.62752 5.82922 8.76098C5.68227 8.83494 5.52012 8.86079 5.36098 8.83564C5.07377 8.79025 4.81631 8.49716 4.3014 7.91097C3.30574 6.7775 2.80791 6.21076 2.41149 6.24558C2.19705 6.26442 1.99649 6.37361 1.84899 6.55181C1.57633 6.88124 1.65134 7.67816 1.80134 9.27201L1.99234 11.3014C2.06384 12.0611 2.12722 12.7345 2.19403 13.3334Z" fill="#FFC000"/>
<path d="M11.1329 18.3333C14.087 18.3333 15.5641 18.3333 16.5496 17.3251C17.3112 16.546 17.5782 15.3705 17.8055 13.3333H2.19385C2.42111 15.3705 2.68812 16.546 3.44973 17.3251C4.43525 18.3333 5.91229 18.3333 8.86638 18.3333H11.1329Z" fill="#FFC000"/>
</svg>
