<svg width="20" height="20" viewBox="0 0 20 20" fill="none" xmlns="http://www.w3.org/2000/svg">
<path opacity="0.5" d="M10.0003 2.5C8.0747 2.5 6.85872 4.65597 4.42675 8.96791L4.1237 9.50523C2.10275 13.0884 1.09228 14.88 2.00554 16.19C2.9188 17.5 5.17829 17.5 9.69727 17.5H10.3034C14.8224 17.5 17.0818 17.5 17.9951 16.19C18.9084 14.88 17.8979 13.0884 15.8769 9.50522L15.5739 8.96791C13.1419 4.65597 11.9259 2.5 10.0003 2.5Z" fill="#FFC000"/>
<path d="M10.0003 6.04166C10.3455 6.04166 10.6253 6.32148 10.6253 6.66666V10.8333C10.6253 11.1785 10.3455 11.4583 10.0003 11.4583C9.65515 11.4583 9.37533 11.1785 9.37533 10.8333V6.66666C9.37533 6.32148 9.65515 6.04166 10.0003 6.04166Z" fill="#FFC000"/>
<path d="M10.0003 14.1667C10.4606 14.1667 10.8337 13.7936 10.8337 13.3333C10.8337 12.8731 10.4606 12.5 10.0003 12.5C9.54009 12.5 9.16699 12.8731 9.16699 13.3333C9.16699 13.7936 9.54009 14.1667 10.0003 14.1667Z" fill="#FFC000"/>
</svg>
