<svg width="16" height="16" viewBox="0 0 16 16" fill="none" xmlns="http://www.w3.org/2000/svg">
<path opacity="0.5" d="M8.00016 2C6.45966 2 5.48688 3.72478 3.5413 7.17433L3.29886 7.60418C1.6821 10.4707 0.873724 11.904 1.60433 12.952C2.33494 14 4.14254 14 7.75772 14H8.2426C11.8578 14 13.6654 14 14.396 12.952C15.1266 11.904 14.3182 10.4707 12.7015 7.60418L12.459 7.17432C10.5134 3.72477 9.54066 2 8.00016 2Z" fill="#FF4973"/>
<path d="M8.00016 4.83333C8.2763 4.83333 8.50016 5.05719 8.50016 5.33333V8.66666C8.50016 8.9428 8.2763 9.16666 8.00016 9.16666C7.72402 9.16666 7.50016 8.9428 7.50016 8.66666V5.33333C7.50016 5.05719 7.72402 4.83333 8.00016 4.83333Z" fill="#FF4973"/>
<path d="M8.00016 11.3333C8.36835 11.3333 8.66683 11.0349 8.66683 10.6667C8.66683 10.2985 8.36835 10 8.00016 10C7.63197 10 7.3335 10.2985 7.3335 10.6667C7.3335 11.0349 7.63197 11.3333 8.00016 11.3333Z" fill="#FF4973"/>
</svg>
