<svg width="20" height="20" viewBox="0 0 20 20" fill="none" xmlns="http://www.w3.org/2000/svg">
<path opacity="0.5" d="M2.5 8.33366C2.5 5.19096 2.5 3.61961 3.47631 2.6433C4.45262 1.66699 6.02397 1.66699 9.16667 1.66699H10.8333C13.976 1.66699 15.5474 1.66699 16.5237 2.6433C17.5 3.61961 17.5 5.19096 17.5 8.33366V11.667C17.5 14.8097 17.5 16.381 16.5237 17.3573C15.5474 18.3337 13.976 18.3337 10.8333 18.3337H9.16667C6.02397 18.3337 4.45262 18.3337 3.47631 17.3573C2.5 16.381 2.5 14.8097 2.5 11.667V8.33366Z" fill="#87ADF0"/>
<path d="M13.7657 13.7508C13.9116 13.637 14.0438 13.5047 14.3084 13.2402L17.6062 9.94238C17.6859 9.86265 17.6495 9.72533 17.5429 9.68837C17.1537 9.55331 16.6473 9.29976 16.1736 8.82608C15.6999 8.3524 15.4464 7.84602 15.3113 7.45675C15.2744 7.35022 15.137 7.31373 15.0573 7.39346L11.7595 10.6913L11.7595 10.6913C11.4949 10.9558 11.3627 11.0881 11.2489 11.2339C11.1147 11.406 10.9997 11.5921 10.9058 11.7891C10.8263 11.956 10.7671 12.1335 10.6488 12.4884L10.4959 12.947L10.2529 13.6762L10.025 14.3599C9.96674 14.5346 10.0122 14.7271 10.1424 14.8573C10.2726 14.9875 10.4651 15.0329 10.6398 14.9747L11.3235 14.7468L12.0527 14.5037L12.5113 14.3509L12.5113 14.3509C12.8662 14.2326 13.0437 14.1734 13.2106 14.0939C13.4076 14 13.5937 13.8849 13.7657 13.7508Z" fill="#87ADF0"/>
<path d="M18.6388 8.90983C19.3426 8.20596 19.3426 7.06477 18.6388 6.36091C17.9349 5.65704 16.7937 5.65704 16.0898 6.36091L15.9838 6.46693C15.8815 6.56924 15.8352 6.71214 15.8607 6.85456C15.8768 6.94414 15.9066 7.07512 15.9608 7.2314C16.0693 7.54396 16.274 7.95425 16.6597 8.33994C17.0454 8.72563 17.4557 8.93041 17.7683 9.03885C17.9246 9.09307 18.0555 9.12287 18.1451 9.13895C18.2875 9.16451 18.4304 9.11816 18.5327 9.01585L18.6388 8.90983Z" fill="#87ADF0"/>
<path fill-rule="evenodd" clip-rule="evenodd" d="M6.04199 7.5C6.04199 7.15482 6.32181 6.875 6.66699 6.875H12.0837C12.4288 6.875 12.7087 7.15482 12.7087 7.5C12.7087 7.84518 12.4288 8.125 12.0837 8.125H6.66699C6.32181 8.125 6.04199 7.84518 6.04199 7.5ZM6.04199 10.8333C6.04199 10.4882 6.32181 10.2083 6.66699 10.2083H9.16699C9.51217 10.2083 9.79199 10.4882 9.79199 10.8333C9.79199 11.1785 9.51217 11.4583 9.16699 11.4583H6.66699C6.32181 11.4583 6.04199 11.1785 6.04199 10.8333ZM6.04199 14.1667C6.04199 13.8215 6.32181 13.5417 6.66699 13.5417H7.91699C8.26217 13.5417 8.54199 13.8215 8.54199 14.1667C8.54199 14.5118 8.26217 14.7917 7.91699 14.7917H6.66699C6.32181 14.7917 6.04199 14.5118 6.04199 14.1667Z" fill="#87ADF0"/>
</svg>
