<svg width="16" height="16" viewBox="0 0 16 16" fill="none" xmlns="http://www.w3.org/2000/svg">
<path opacity="0.5" d="M8.00016 1.33325C4.31826 1.33325 1.3335 4.31802 1.3335 7.99992C1.3335 8.23588 1.34575 8.46897 1.36967 8.6986C1.60221 8.90148 2.9115 9.99992 4.00016 9.99992C4.80816 9.99992 5.73768 9.39485 6.25833 8.99992L6.26429 8.99396C6.09625 8.70114 6.00016 8.36175 6.00016 7.99992C6.00016 6.89535 6.89559 5.99992 8.00016 5.99992C9.10473 5.99992 10.0002 6.89535 10.0002 7.99992C10.0002 8.58998 9.74463 9.12037 9.33819 9.48644C9.65178 9.76158 10.0609 9.99992 10.5371 9.99992C11.6634 9.99992 11.6634 8.66659 12.7897 8.66659C13.508 8.66659 14.0736 9.20897 14.3892 9.60188L14.4507 9.6901C14.5917 9.15033 14.6668 8.58389 14.6668 7.99992C14.6668 4.31802 11.6821 1.33325 8.00016 1.33325Z" fill="#87ADF0"/>
<path d="M6.25829 9.00008C5.73764 9.39501 4.80812 10.0001 4.00012 10.0001C2.91146 10.0001 1.60217 8.90164 1.36963 8.69876C1.71888 12.0523 4.55418 14.6667 8.00012 14.6667C11.098 14.6667 13.7024 12.5537 14.4507 9.69027L14.3891 9.60204C14.0736 9.20913 13.508 8.66675 12.7896 8.66675C11.6633 8.66675 11.6633 10.0001 10.537 10.0001C10.0608 10.0001 9.65175 9.76175 9.33815 9.48661C8.98375 9.8058 8.51463 10.0001 8.00012 10.0001C7.25738 10.0001 6.6092 9.59521 6.26425 8.99412L6.25829 9.00008Z" fill="#87ADF0"/>
<path d="M13.0186 3.61153C13.0052 3.6224 12.9922 3.63406 12.9798 3.64653L12.3131 4.31319C12.1179 4.50846 12.1179 4.82504 12.3131 5.0203C12.5084 5.21556 12.825 5.21556 13.0202 5.0203L13.6231 4.41737C13.4418 4.13338 13.2396 3.86404 13.0186 3.61153Z" fill="#87ADF0"/>
<path d="M3.61145 2.98149C3.62232 2.99488 3.63399 3.00784 3.64645 3.0203L4.31311 3.68697C4.50838 3.88223 4.82496 3.88223 5.02022 3.68697C5.21548 3.49171 5.21548 3.17512 5.02022 2.97986L4.41729 2.37693C4.1333 2.55825 3.86396 2.7605 3.61145 2.98149Z" fill="#87ADF0"/>
<path d="M6.97978 3.0203C6.78452 2.82504 6.78452 2.50846 6.97978 2.31319C7.17504 2.11793 7.49163 2.11793 7.68689 2.31319L8.35356 2.97986C8.54882 3.17512 8.54882 3.49171 8.35356 3.68697C8.15829 3.88223 7.84171 3.88223 7.64645 3.68697L6.97978 3.0203Z" fill="#87ADF0"/>
<path d="M11.0667 3.63341C11.2324 3.4125 11.1876 3.0991 10.9667 2.93341C10.7458 2.76773 10.4324 2.8125 10.2667 3.03341L9.26667 4.36675C9.10098 4.58766 9.14575 4.90106 9.36667 5.06675C9.58758 5.23243 9.90098 5.18766 10.0667 4.96675L11.0667 3.63341Z" fill="#87ADF0"/>
<path d="M5.60636 5.04017C5.67783 5.30691 5.95199 5.4652 6.21873 5.39373L7.12941 5.14971C7.39614 5.07824 7.55444 4.80407 7.48296 4.53734C7.41149 4.27061 7.13733 4.11231 6.87059 4.18379L5.95991 4.4278C5.69318 4.49927 5.53488 4.77344 5.60636 5.04017Z" fill="#87ADF0"/>
<path d="M11.6435 6.90278C11.6565 7.17862 11.4434 7.41274 11.1676 7.4257C10.8917 7.43867 10.6576 7.22556 10.6446 6.94973L10.6004 6.00796C10.5874 5.73212 10.8005 5.498 11.0764 5.48504C11.3522 5.47207 11.5863 5.68517 11.5993 5.96101L11.6435 6.90278Z" fill="#87ADF0"/>
<path d="M12.2912 8.03912C12.4737 8.24635 12.7897 8.2664 12.9969 8.08389L14.1156 7.09866C14.3228 6.91615 14.3429 6.6002 14.1604 6.39297C13.9779 6.18574 13.6619 6.16569 13.4547 6.3482L12.336 7.33343C12.1287 7.51594 12.1087 7.83188 12.2912 8.03912Z" fill="#87ADF0"/>
<path d="M3.68297 5.4446C3.5687 5.19321 3.67985 4.89678 3.93124 4.78251C4.18263 4.66824 4.47906 4.77939 4.59333 5.03078L4.98348 5.88908C5.09775 6.14046 4.9866 6.43689 4.73521 6.55116C4.48382 6.66544 4.18739 6.55428 4.07312 6.30289L3.68297 5.4446Z" fill="#87ADF0"/>
<path d="M4.62863 7.26343C4.85147 7.42652 4.89991 7.73937 4.73682 7.96221L4.18 8.72302C4.01691 8.94586 3.70405 8.9943 3.48121 8.83121C3.25838 8.66812 3.20994 8.35526 3.37303 8.13242L3.92985 7.37161C4.09294 7.14877 4.4058 7.10034 4.62863 7.26343Z" fill="#87ADF0"/>
<path d="M1.90362 5.98627C1.88826 5.71056 2.09932 5.47459 2.37503 5.45923C2.65075 5.44387 2.88671 5.65493 2.90207 5.93065L2.95451 6.872C2.96987 7.14771 2.75881 7.38368 2.4831 7.39903C2.20738 7.41439 1.97142 7.20334 1.95606 6.92762L1.90362 5.98627Z" fill="#87ADF0"/>
</svg>
