<svg width="20" height="20" viewBox="0 0 20 20" fill="none" xmlns="http://www.w3.org/2000/svg">
<path opacity="0.5" d="M17.3736 7.26087C18.6533 5.98112 18.6533 3.90623 17.3736 2.62647C16.0938 1.34672 14.019 1.34672 12.7392 2.62647L12 3.36567C12.0101 3.39624 12.0206 3.42723 12.0315 3.45862C12.3025 4.23957 12.8137 5.26333 13.7753 6.22501C14.737 7.18669 15.7608 7.69789 16.5417 7.96884C16.573 7.97968 16.6038 7.99013 16.6343 8.00021L17.3736 7.26087Z" fill="white" fill-opacity="0.4"/>
<path d="M12.032 3.33386L12.0002 3.36569C12.0103 3.39626 12.0208 3.42725 12.0317 3.45864C12.3026 4.23959 12.8138 5.26335 13.7755 6.22503C14.7372 7.1867 15.7609 7.69791 16.5419 7.96886C16.5729 7.9796 16.6035 7.98997 16.6336 7.99997L9.49992 15.1337C9.01898 15.6146 8.77846 15.8551 8.51331 16.0619C8.20052 16.3059 7.86208 16.5151 7.50398 16.6857C7.20042 16.8304 6.87776 16.938 6.23249 17.1531L2.8297 18.2873C2.51215 18.3932 2.16205 18.3105 1.92536 18.0738C1.68867 17.8371 1.60603 17.487 1.71188 17.1695L2.84614 13.7667C3.06123 13.1214 3.16878 12.7988 3.31346 12.4952C3.48412 12.1371 3.69328 11.7987 3.93725 11.4859C4.14406 11.2207 4.38454 10.9803 4.86545 10.4993L12.032 3.33386Z" fill="white" fill-opacity="0.4"/>
</svg>
