<svg width="16" height="16" viewBox="0 0 16 16" fill="none" xmlns="http://www.w3.org/2000/svg">
<path opacity="0.5" d="M1.3335 8.00008C1.3335 9.093 1.61681 9.46106 2.18342 10.1972C3.31481 11.667 5.21224 13.3334 8.00016 13.3334C10.7881 13.3334 12.6855 11.667 13.8169 10.1972C14.3835 9.46106 14.6668 9.093 14.6668 8.00008C14.6668 6.90716 14.3835 6.5391 13.8169 5.80297C12.6855 4.33312 10.7881 2.66675 8.00016 2.66675C5.21224 2.66675 3.31481 4.33312 2.18342 5.80297C1.61681 6.5391 1.3335 6.90716 1.3335 8.00008Z" fill="#87ADF0"/>
<path fill-rule="evenodd" clip-rule="evenodd" d="M5.5 8C5.5 6.61929 6.61929 5.5 8 5.5C9.38071 5.5 10.5 6.61929 10.5 8C10.5 9.38071 9.38071 10.5 8 10.5C6.61929 10.5 5.5 9.38071 5.5 8ZM6.5 8C6.5 7.17157 7.17157 6.5 8 6.5C8.82843 6.5 9.5 7.17157 9.5 8C9.5 8.82843 8.82843 9.5 8 9.5C7.17157 9.5 6.5 8.82843 6.5 8Z" fill="#87ADF0"/>
</svg>
