<svg width="20" height="20" viewBox="0 0 20 20" fill="none" xmlns="http://www.w3.org/2000/svg">
<path opacity="0.4" d="M17.7083 7.62454C17.3 6.97454 16.8333 6.39121 16.35 5.86621L13.2083 9.00788C13.3083 9.31621 13.3667 9.64954 13.3667 9.99954C13.3667 11.8662 11.8583 13.3662 10 13.3662C9.65 13.3662 9.31667 13.3079 9.00833 13.2079L6.125 16.0912C7.34167 16.7745 8.65833 17.1329 10 17.1329C11.4833 17.1329 12.925 16.6995 14.2417 15.8912C15.5583 15.0745 16.7417 13.8829 17.7083 12.3662C18.5417 11.0662 18.5417 8.93288 17.7083 7.62454Z" fill="#FF4973"/>
<path d="M11.6829 8.31621L8.31621 11.6829C7.89121 11.2495 7.61621 10.6495 7.61621 9.99954C7.61621 8.69121 8.68288 7.61621 9.99954 7.61621C10.6495 7.61621 11.2495 7.89121 11.6829 8.31621Z" fill="#FF4973"/>
<path opacity="0.4" d="M15.2087 4.79173L12.3837 7.61673C11.7753 7.00006 10.9337 6.6334 10.0003 6.6334C8.13366 6.6334 6.63366 8.14173 6.63366 10.0001C6.63366 10.9334 7.00866 11.7751 7.61699 12.3834L4.80033 15.2084H4.79199C3.86699 14.4584 3.01699 13.5001 2.29199 12.3667C1.45866 11.0584 1.45866 8.9334 2.29199 7.62506C3.25866 6.1084 4.44199 4.91673 5.75866 4.10007C7.07533 3.30007 8.51699 2.8584 10.0003 2.8584C11.8587 2.8584 13.6587 3.54173 15.2087 4.79173Z" fill="#FF4973"/>
<path d="M12.3834 10.0001C12.3834 11.3084 11.3167 12.3834 10.0001 12.3834C9.95007 12.3834 9.9084 12.3834 9.8584 12.3667L12.3667 9.8584C12.3834 9.9084 12.3834 9.95007 12.3834 10.0001Z" fill="#FF4973"/>
<path d="M18.1417 1.8584C17.8917 1.6084 17.4834 1.6084 17.2334 1.8584L1.8584 17.2417C1.6084 17.4917 1.6084 17.9001 1.8584 18.1501C1.9834 18.2667 2.14173 18.3334 2.3084 18.3334C2.47507 18.3334 2.6334 18.2667 2.7584 18.1417L18.1417 2.7584C18.4001 2.5084 18.4001 2.1084 18.1417 1.8584Z" fill="#FF4973"/>
</svg>
