<svg width="20" height="20" viewBox="0 0 20 20" fill="none" xmlns="http://www.w3.org/2000/svg">
<path opacity="0.4" d="M17.7083 7.625C17.3 6.975 16.8333 6.39167 16.35 5.86667L13.2083 9.00834C13.3083 9.31667 13.3667 9.65 13.3667 10C13.3667 11.8667 11.8583 13.3667 10 13.3667C9.65 13.3667 9.31667 13.3083 9.00833 13.2083L6.125 16.0917C7.34167 16.775 8.65833 17.1333 10 17.1333C11.4833 17.1333 12.925 16.7 14.2417 15.8917C15.5583 15.075 16.7417 13.8833 17.7083 12.3667C18.5417 11.0667 18.5417 8.93334 17.7083 7.625Z" fill="#87ADF0"/>
<path d="M11.6839 8.31667L8.31719 11.6833C7.89219 11.25 7.61719 10.65 7.61719 10C7.61719 8.69167 8.68385 7.61667 10.0005 7.61667C10.6505 7.61667 11.2505 7.89167 11.6839 8.31667Z" fill="#87ADF0"/>
<path opacity="0.4" d="M15.2077 4.79167L12.3827 7.61667C11.7743 7 10.9327 6.63334 9.99935 6.63334C8.13268 6.63334 6.63268 8.14167 6.63268 10C6.63268 10.9333 7.00768 11.775 7.61602 12.3833L4.79935 15.2083H4.79102C3.86602 14.4583 3.01602 13.5 2.29102 12.3667C1.45768 11.0583 1.45768 8.93334 2.29102 7.625C3.25768 6.10834 4.44102 4.91667 5.75768 4.1C7.07435 3.3 8.51602 2.85834 9.99935 2.85834C11.8577 2.85834 13.6577 3.54167 15.2077 4.79167Z" fill="#87ADF0"/>
<path d="M12.3824 10C12.3824 11.3083 11.3158 12.3833 9.99909 12.3833C9.94909 12.3833 9.90742 12.3833 9.85742 12.3667L12.3658 9.85834C12.3824 9.90834 12.3824 9.95 12.3824 10Z" fill="#87ADF0"/>
<path d="M18.1408 1.85834C17.8908 1.60834 17.4824 1.60834 17.2324 1.85834L1.85742 17.2417C1.60742 17.4917 1.60742 17.9 1.85742 18.15C1.98242 18.2667 2.14076 18.3333 2.30742 18.3333C2.47409 18.3333 2.63242 18.2667 2.75742 18.1417L18.1408 2.75834C18.3991 2.50834 18.3991 2.10834 18.1408 1.85834Z" fill="#87ADF0"/>
</svg>
