<svg width="16" height="16" viewBox="0 0 16 16" fill="none" xmlns="http://www.w3.org/2000/svg">
<path d="M13.3332 10.0001C13.3332 12.8364 11.5878 14.081 10.239 14.5007C10.1829 14.5182 10.1305 14.5195 10.0839 14.5084C9.8914 14.4627 9.79597 14.2067 9.93444 14.0077C10.5214 13.1642 11.1998 11.8773 11.1998 10.6667C11.1998 9.36633 10.1038 7.83106 9.24792 6.88413C9.05224 6.66764 8.71095 6.81088 8.70027 7.1025C8.66492 8.06863 8.51247 9.36124 7.85505 10.3743C7.74923 10.5374 7.52461 10.5509 7.40404 10.3984C7.19863 10.1386 6.99322 9.8177 6.78782 9.56419C6.67717 9.42763 6.4772 9.42576 6.34958 9.5466C5.85201 10.0177 5.15539 10.7524 5.15539 11.6667C5.15539 12.2866 5.39557 12.9366 5.66655 13.4595C5.80134 13.7196 5.59755 14.0276 5.34519 13.9729C5.31844 13.9671 5.29115 13.9573 5.26365 13.9428C4.07521 13.3192 2.6665 12.0558 2.6665 10.0001C2.6665 7.90242 5.54003 4.9966 6.63721 2.25133C6.81034 1.81814 7.3439 1.61458 7.715 1.89727C9.96246 3.60931 13.3332 6.9188 13.3332 10.0001Z" fill="#87ADF0"/>
<path opacity="0.5" d="M5.15576 11.667C5.15576 12.2869 5.39594 12.9369 5.66692 13.4598C5.8017 13.7199 5.59792 14.0279 5.34556 13.9732C5.66683 14.3334 7.78433 14.6118 10.0842 14.5087C9.89176 14.463 9.79634 14.207 9.93481 14.008C10.5217 13.1645 11.2002 11.8776 11.2002 10.667C11.2002 9.36663 10.1042 7.83136 9.24829 6.88443C9.05261 6.66795 8.71132 6.81119 8.70064 7.10281C8.66529 8.06894 8.51284 9.36155 7.85542 10.3746C7.7496 10.5377 7.52498 10.5512 7.40441 10.3987C7.199 10.1389 6.99359 9.81801 6.78818 9.5645C6.67754 9.42794 6.47757 9.42606 6.34995 9.5469C5.85237 10.018 5.15576 10.7527 5.15576 11.667Z" fill="#87ADF0"/>
</svg>
