<svg width="20" height="20" viewBox="0 0 20 20" fill="none" xmlns="http://www.w3.org/2000/svg">
<path opacity="0.5" d="M3.13146 14.4951L4.31848 15.6821L5.50572 16.8693C6.22829 17.5918 6.58958 17.9531 7.04901 18.1434C7.50844 18.3337 8.01938 18.3337 9.04125 18.3337H10.9597C11.9816 18.3337 12.4925 18.3337 12.952 18.1434C13.4114 17.9531 13.7727 17.5918 14.4953 16.8693L16.8694 14.4952C17.5919 13.7726 17.9532 13.4113 18.1435 12.9519C18.3338 12.4924 18.3338 11.9815 18.3338 10.9596V9.04116C18.3338 8.01928 18.3338 7.50834 18.1435 7.04892C17.9532 6.58949 17.5919 6.2282 16.8694 5.50562L15.6822 4.31858L14.4951 3.13146C13.7725 2.40888 13.4112 2.04759 12.9518 1.85729C12.4924 1.66699 11.9814 1.66699 10.9596 1.66699H9.04109C8.01921 1.66699 7.50828 1.66699 7.04885 1.85729C6.58942 2.04759 6.22813 2.40888 5.50556 3.13146L3.13146 5.50556C2.40888 6.22813 2.04759 6.58942 1.85729 7.04885C1.66699 7.50828 1.66699 8.01921 1.66699 9.04109V10.9596C1.66699 11.9814 1.66699 12.4924 1.85729 12.9518C2.04759 13.4112 2.40888 13.7725 3.13146 14.4951Z" fill="#FF4973"/>
<path d="M15.6821 4.31836L4.31836 15.6819" stroke="#FF4973" stroke-width="1.5"/>
</svg>
