<svg width="20" height="20" viewBox="0 0 20 20" fill="none" xmlns="http://www.w3.org/2000/svg">
<path opacity="0.5" fill-rule="evenodd" clip-rule="evenodd" d="M2.88738 2.88738C1.66699 4.10777 1.66699 6.07195 1.66699 10.0003C1.66699 13.9287 1.66699 15.8929 2.88738 17.1133C4.10777 18.3337 6.07195 18.3337 10.0003 18.3337C13.9287 18.3337 15.8929 18.3337 17.1133 17.1133C18.3337 15.8929 18.3337 13.9287 18.3337 10.0003C18.3337 6.07195 18.3337 4.10777 17.1133 2.88738C15.8929 1.66699 13.9287 1.66699 10.0003 1.66699C6.07195 1.66699 4.10777 1.66699 2.88738 2.88738Z" fill="#87ADF0"/>
<path d="M7.08697 10.9805C6.60025 10.4639 5.78784 10.4367 5.26776 10.9198L4.59233 11.5471C4.33942 11.782 3.94396 11.7674 3.70905 11.5145C3.47414 11.2616 3.48874 10.8662 3.74165 10.6313L4.41708 10.0039C5.44046 9.05339 7.03909 9.10674 7.99682 10.1234L10.2031 12.4653C10.4338 12.7103 10.8116 12.7433 11.0813 12.542C12.0812 11.7961 13.4735 11.8809 14.3756 12.7426L16.2654 14.5481C16.515 14.7865 16.524 15.1822 16.2856 15.4317C16.0471 15.6813 15.6515 15.6904 15.4019 15.4519L13.5121 13.6464C13.0512 13.2061 12.3397 13.1628 11.8288 13.544C11.05 14.1249 9.95943 14.0296 9.29321 13.3224L7.08697 10.9805Z" fill="#87ADF0"/>
<path d="M15.0003 6.66667C15.0003 7.58714 14.2541 8.33333 13.3337 8.33333C12.4132 8.33333 11.667 7.58714 11.667 6.66667C11.667 5.74619 12.4132 5 13.3337 5C14.2541 5 15.0003 5.74619 15.0003 6.66667Z" fill="#87ADF0"/>
</svg>
