<svg width="20" height="20" viewBox="0 0 20 20" fill="none" xmlns="http://www.w3.org/2000/svg">
<rect x="0.71582" y="0.714264" width="18.5714" height="18.5714" rx="4" fill="#012066"/>
<path d="M19.2872 16.1077V16.4285C19.2872 18.0065 18.0081 19.2857 16.4301 19.2857H16.4043L0.71582 3.59722V3.57141C0.71582 1.99345 1.99501 0.714264 3.57296 0.714264H3.89383L19.2872 16.1077Z" fill="white"/>
<path d="M16.4301 0.714294C18.0081 0.714294 19.2872 1.99348 19.2872 3.57144V3.62236L3.62458 19.2857H3.57296C1.99502 19.2857 0.715844 18.0065 0.71582 16.4286V16.1335L16.135 0.714294H16.4301Z" fill="white"/>
<path d="M17.1447 0.805176C17.6387 0.932866 18.0806 1.18952 18.433 1.5369L9.99833 9.97231L8.98828 8.96226L17.1447 0.805176Z" fill="#C20F2D"/>
<path d="M10.9145 11.0101L2.7567 19.1672C2.27303 19.0235 1.84313 18.7556 1.50391 18.3999L9.90444 10L10.9145 11.0101Z" fill="#C20F2D"/>
<path d="M19.1867 17.1759C19.0539 17.6668 18.7938 18.1047 18.4438 18.4531L9.64355 9.65284L10.6536 8.64279L19.1867 17.1759Z" fill="#C20F2D"/>
<path d="M10.1994 9.9047L9.18931 10.9147L0.880859 2.60629C1.04871 2.1386 1.3353 1.72785 1.70396 1.4093L10.1994 9.9047Z" fill="#C20F2D"/>
<path d="M7.49805 0.714447H12.498V19.2859H7.49805V0.714447Z" fill="white"/>
<path d="M19.2852 7.50012L19.2852 12.5001L0.713728 12.5001L0.713728 7.50012L19.2852 7.50012Z" fill="white"/>
<path d="M19.2852 8.57162L19.2852 11.4288L0.713728 11.4288L0.713728 8.57162L19.2852 8.57162Z" fill="#C20F2D"/>
<path d="M11.4268 19.2859L8.56961 19.2859L8.56962 0.71446L11.4268 0.71446L11.4268 19.2859Z" fill="#C20F2D"/>
</svg>
