<svg width="20" height="20" viewBox="0 0 20 20" fill="none" xmlns="http://www.w3.org/2000/svg">
<path opacity="0.4" d="M16.6419 8.33334V15C16.6419 17.5 15.8086 18.3333 13.3086 18.3333H6.64193C4.14193 18.3333 3.30859 17.5 3.30859 15V8.33334H16.6419Z" fill="#87ADF0"/>
<path d="M17.9173 5.83332V6.66666C17.9173 7.58332 17.4757 8.33332 16.2507 8.33332H3.75065C2.47565 8.33332 2.08398 7.58332 2.08398 6.66666V5.83332C2.08398 4.91666 2.47565 4.16666 3.75065 4.16666H16.2507C17.4757 4.16666 17.9173 4.91666 17.9173 5.83332Z" fill="#87ADF0"/>
<path opacity="0.4" d="M9.70096 4.16668H5.10096C4.81763 3.85835 4.82596 3.38335 5.12596 3.08335L6.30929 1.90001C6.61763 1.59168 7.12596 1.59168 7.43429 1.90001L9.70096 4.16668Z" fill="#87ADF0"/>
<path opacity="0.4" d="M14.891 4.16668H10.291L12.5577 1.90001C12.866 1.59168 13.3743 1.59168 13.6827 1.90001L14.866 3.08335C15.166 3.38335 15.1743 3.85835 14.891 4.16668Z" fill="#87ADF0"/>
<path opacity="0.6" d="M7.44922 8.33334V12.6167C7.44922 13.2833 8.18255 13.675 8.74089 13.3167L9.52422 12.8C9.80755 12.6167 10.1659 12.6167 10.4409 12.8L11.1826 13.3C11.7326 13.6667 12.4742 13.275 12.4742 12.6083V8.33334H7.44922Z" fill="#87ADF0"/>
</svg>
