<svg width="20" height="20" viewBox="0 0 20 20" fill="none" xmlns="http://www.w3.org/2000/svg">
<path fill-rule="evenodd" clip-rule="evenodd" d="M1.68945 9.37508C2.00906 5.06462 5.60757 1.66675 9.9997 1.66675C9.30732 1.66675 8.69085 1.97025 8.1837 2.43435C7.6791 2.89613 7.25268 3.54073 6.90779 4.30271C6.56086 5.06918 6.29137 5.96565 6.10897 6.93851C5.96276 7.71837 5.87378 8.54051 5.84412 9.37508H1.68945ZM1.68945 10.6251H5.84412C5.87378 11.4597 5.96276 12.2818 6.10897 13.0617C6.29137 14.0345 6.56086 14.931 6.90779 15.6975C7.25268 16.4594 7.6791 17.104 8.1837 17.5658C8.69085 18.0299 9.30732 18.3334 9.9997 18.3334C5.60757 18.3334 2.00906 14.9355 1.68945 10.6251Z" fill="#87ADF0"/>
<path d="M9.9997 1.66675C10.6921 1.66675 11.3086 1.97026 11.8157 2.43435C12.3203 2.89613 12.7467 3.54073 13.0916 4.30271C13.4385 5.06918 13.708 5.96565 13.8904 6.93851C14.0366 7.71837 14.1256 8.54051 14.1553 9.37508H18.3099C17.9903 5.06462 14.3918 1.66675 9.9997 1.66675Z" fill="#87ADF0"/>
<path d="M13.8904 13.0617C13.708 14.0345 13.4385 14.931 13.0916 15.6975C12.7467 16.4594 12.3203 17.104 11.8157 17.5658C11.3086 18.0299 10.6921 18.3334 9.9997 18.3334C14.3918 18.3334 17.9903 14.9355 18.3099 10.6251H14.1553C14.1256 11.4597 14.0366 12.2818 13.8904 13.0617Z" fill="#87ADF0"/>
<g opacity="0.5">
<path d="M10.0002 2.82959C9.77106 2.82959 9.475 2.9271 9.13073 3.24215C8.78393 3.55952 8.43674 4.05692 8.13 4.73461C7.82529 5.4078 7.57786 6.22047 7.4076 7.12863C7.27351 7.84381 7.19032 8.60195 7.16113 9.37513H12.8393C12.8101 8.60195 12.727 7.84382 12.5929 7.12863C12.4226 6.22047 12.1752 5.4078 11.8705 4.73461C11.5637 4.05692 11.2165 3.55952 10.8697 3.24215C10.5255 2.9271 10.2294 2.82959 10.0002 2.82959Z" fill="#87ADF0"/>
<path d="M7.4076 12.8716C7.57786 13.7798 7.82529 14.5925 8.13 15.2657C8.43674 15.9433 8.78393 16.4407 9.13073 16.7581C9.475 17.0732 9.77106 17.1707 10.0002 17.1707C10.2294 17.1707 10.5255 17.0732 10.8697 16.7581C11.2165 16.4407 11.5637 15.9433 11.8705 15.2657C12.1752 14.5925 12.4226 13.7798 12.5929 12.8716C12.727 12.1564 12.8101 11.3983 12.8393 10.6251H7.16113C7.19032 11.3983 7.27351 12.1564 7.4076 12.8716Z" fill="#87ADF0"/>
</g>
</svg>
