<svg width="16" height="16" viewBox="0 0 16 16" fill="none" xmlns="http://www.w3.org/2000/svg">
<path d="M14.6668 7.99998C14.6668 11.6819 11.6821 14.6666 8.00016 14.6666C4.31826 14.6666 1.3335 11.6819 1.3335 7.99998C1.3335 4.31808 4.31826 1.33331 8.00016 1.33331C11.6821 1.33331 14.6668 4.31808 14.6668 7.99998Z" stroke="#87ADF0" stroke-width="1.5"/>
<path d="M2 5.33845C2 5.33845 3.95811 7.33329 6.95811 7.33329C9 7.33329 10.0838 6.15124 11 5.83714C12.7219 5.24684 14 5.33845 14 5.33845" stroke="#87ADF0" stroke-width="1.5" stroke-linecap="round"/>
<path d="M2.00007 9.33845C2.00007 9.33845 3.39266 9.24684 5.26889 9.83715C6.26721 10.1512 7.4481 11.3333 9.67296 11.3333C11.6808 11.3333 13.2603 10.5807 14.1802 9.99998" stroke="#87ADF0" stroke-width="1.5" stroke-linecap="round"/>
</svg>
