<svg width="16" height="16" viewBox="0 0 16 16" fill="none" xmlns="http://www.w3.org/2000/svg">
<path opacity="0.5" d="M1.3335 7.99992C1.3335 4.85722 1.3335 3.28587 2.30981 2.30956C3.28612 1.33325 4.85747 1.33325 8.00016 1.33325C11.1429 1.33325 12.7142 1.33325 13.6905 2.30956C14.6668 3.28587 14.6668 4.85722 14.6668 7.99992C14.6668 11.1426 14.6668 12.714 13.6905 13.6903C12.7142 14.6666 11.1429 14.6666 8.00016 14.6666C4.85747 14.6666 3.28612 14.6666 2.30981 13.6903C1.3335 12.714 1.3335 11.1426 1.3335 7.99992Z" fill="#FFD000"/>
<path d="M9.6665 7.16675C9.39036 7.16675 9.1665 6.94289 9.1665 6.66675C9.1665 6.39061 9.39036 6.16675 9.6665 6.16675H11.3332C11.6093 6.16675 11.8332 6.39061 11.8332 6.66675V8.33341C11.8332 8.60956 11.6093 8.83341 11.3332 8.83341C11.057 8.83341 10.8332 8.60956 10.8332 8.33341V7.87385L9.49146 9.21556C9.03585 9.67118 8.29716 9.67117 7.84155 9.21556L6.78435 8.15837C6.71927 8.09329 6.61374 8.09329 6.54865 8.15837L5.02006 9.68697C4.82479 9.88223 4.50821 9.88223 4.31295 9.68697C4.11769 9.49171 4.11769 9.17512 4.31295 8.97986L5.84155 7.45127C6.29716 6.99565 7.03585 6.99565 7.49146 7.45127L8.54865 8.50846C8.61374 8.57354 8.71927 8.57354 8.78435 8.50846L10.1261 7.16675H9.6665Z" fill="#FFD000"/>
</svg>
