<svg width="16" height="16" viewBox="0 0 16 16" fill="none" xmlns="http://www.w3.org/2000/svg">
<g opacity="0.3" clip-path="url(#clip0_34_2711)">
<path fill-rule="evenodd" clip-rule="evenodd" d="M8 1.83334C11.4058 1.83334 14.1667 4.59425 14.1667 8.00001C14.1667 8.27615 14.3905 8.50001 14.6667 8.50001C14.9428 8.50001 15.1667 8.27615 15.1667 8.00001C15.1667 4.04197 11.958 0.833344 8 0.833344C7.72386 0.833344 7.5 1.0572 7.5 1.33334C7.5 1.60949 7.72386 1.83334 8 1.83334Z" fill="white"/>
<path fill-rule="evenodd" clip-rule="evenodd" d="M8 5.50001C8.27614 5.50001 8.5 5.72387 8.5 6.00001V8.16668H10.6667C10.9428 8.16668 11.1667 8.39053 11.1667 8.66668C11.1667 8.94282 10.9428 9.16668 10.6667 9.16668H8C7.72386 9.16668 7.5 8.94282 7.5 8.66668V6.00001C7.5 5.72387 7.72386 5.50001 8 5.50001Z" fill="white"/>
<path opacity="0.5" fill-rule="evenodd" clip-rule="evenodd" d="M6.06606 1.59839C6.1655 1.85601 6.03728 2.14546 5.77967 2.24491C5.68538 2.28131 5.5922 2.31996 5.50021 2.3608C5.24782 2.47284 4.95238 2.35907 4.84034 2.10668C4.72829 1.85429 4.84206 1.55886 5.09445 1.44682C5.20146 1.39931 5.30985 1.35435 5.41954 1.312C5.67716 1.21256 5.96661 1.34078 6.06606 1.59839ZM3.76481 2.82688C3.95525 3.02684 3.94753 3.34333 3.74756 3.53377C3.67445 3.6034 3.60304 3.67481 3.53341 3.74792C3.34297 3.94789 3.02648 3.95561 2.82652 3.76517C2.62655 3.57473 2.61883 3.25824 2.80927 3.05827C2.89012 2.97338 2.97302 2.89048 3.05791 2.80963C3.25788 2.61919 3.57437 2.62691 3.76481 2.82688ZM2.10632 4.8407C2.35871 4.95274 2.47248 5.24818 2.36044 5.50057C2.3196 5.59256 2.28095 5.68574 2.24455 5.78003C2.1451 6.03764 1.85565 6.16586 1.59803 6.06642C1.34042 5.96697 1.2122 5.67752 1.31164 5.41991C1.35399 5.31021 1.39895 5.20182 1.44645 5.09481C1.5585 4.84242 1.85393 4.72865 2.10632 4.8407ZM1.34706 7.33607C1.62313 7.34274 1.84151 7.57194 1.83484 7.848C1.83362 7.89852 1.83301 7.9492 1.83301 8.00003C1.83301 8.05087 1.83362 8.10155 1.83484 8.15207C1.84151 8.42813 1.62313 8.65733 1.34706 8.664C1.071 8.67067 0.841804 8.45229 0.835134 8.17623C0.833719 8.11766 0.833008 8.05892 0.833008 8.00003C0.833008 7.94115 0.833719 7.88241 0.835134 7.82384C0.841804 7.54778 1.071 7.3294 1.34706 7.33607ZM14.4013 9.93365C14.6589 10.0331 14.7872 10.3225 14.6877 10.5802C14.6454 10.6899 14.6004 10.7983 14.5529 10.9053C14.4408 11.1576 14.1454 11.2714 13.893 11.1594C13.6406 11.0473 13.5269 10.7519 13.6389 10.4995C13.6798 10.4075 13.7184 10.3143 13.7548 10.22C13.8542 9.96243 14.1437 9.83421 14.4013 9.93365ZM1.59803 9.93365C1.85565 9.83421 2.1451 9.96243 2.24455 10.22C2.28095 10.3143 2.3196 10.4075 2.36044 10.4995C2.47248 10.7519 2.35871 11.0473 2.10632 11.1594C1.85393 11.2714 1.5585 11.1576 1.44646 10.9053C1.39895 10.7983 1.35399 10.6899 1.31164 10.5802C1.2122 10.3225 1.34042 10.0331 1.59803 9.93365ZM13.1728 12.2349C13.3728 12.4253 13.3805 12.7418 13.1901 12.9418C13.1092 13.0267 13.0263 13.1096 12.9414 13.1904C12.7415 13.3809 12.425 13.3732 12.2345 13.1732C12.0441 12.9732 12.0518 12.6567 12.2518 12.4663C12.3249 12.3967 12.3963 12.3253 12.4659 12.2521C12.6564 12.0522 12.9729 12.0445 13.1728 12.2349ZM2.82652 12.2349C3.02648 12.0445 3.34297 12.0522 3.53341 12.2521C3.60304 12.3253 3.67445 12.3967 3.74756 12.4663C3.94753 12.6567 3.95525 12.9732 3.76481 13.1732C3.57437 13.3732 3.25788 13.3809 3.05791 13.1904C2.97302 13.1096 2.89012 13.0267 2.80927 12.9418C2.61883 12.7418 2.62655 12.4253 2.82652 12.2349ZM4.84034 13.8934C4.95238 13.641 5.24782 13.5272 5.50021 13.6393C5.5922 13.6801 5.68538 13.7188 5.77967 13.7552C6.03728 13.8546 6.1655 14.1441 6.06606 14.4017C5.96661 14.6593 5.67716 14.7875 5.41955 14.6881C5.30985 14.6457 5.20146 14.6008 5.09445 14.5533C4.84206 14.4412 4.72829 14.1458 4.84034 13.8934ZM11.159 13.8934C11.2711 14.1458 11.1573 14.4412 10.9049 14.5533C10.7979 14.6008 10.6895 14.6457 10.5798 14.6881C10.3222 14.7875 10.0327 14.6593 9.93329 14.4017C9.83385 14.1441 9.96207 13.8546 10.2197 13.7552C10.314 13.7188 10.4071 13.6801 10.4991 13.6393C10.7515 13.5272 11.047 13.641 11.159 13.8934ZM7.33571 14.6526C7.34238 14.3766 7.57158 14.1582 7.84764 14.1649C7.89816 14.1661 7.94884 14.1667 7.99967 14.1667C8.05051 14.1667 8.10119 14.1661 8.15171 14.1649C8.42777 14.1582 8.65697 14.3766 8.66364 14.6526C8.67031 14.9287 8.45193 15.1579 8.17587 15.1646C8.1173 15.166 8.05856 15.1667 7.99967 15.1667C7.94079 15.1667 7.88205 15.166 7.82348 15.1646C7.54742 15.1579 7.32904 14.9287 7.33571 14.6526Z" fill="white"/>
</g>
<defs>
<clipPath id="clip0_34_2711">
<rect width="16" height="16" fill="white"/>
</clipPath>
</defs>
</svg>
