<svg width="20" height="20" viewBox="0 0 20 20" fill="none" xmlns="http://www.w3.org/2000/svg">
<g opacity="0.3">
<path fill-rule="evenodd" clip-rule="evenodd" d="M9.37484 1.66669C9.37484 1.32151 9.65466 1.04169 9.99984 1.04169C14.9474 1.04169 18.9582 5.05247 18.9582 10C18.9582 14.9476 14.9474 18.9584 9.99984 18.9584C5.05229 18.9584 1.0415 14.9476 1.0415 10C1.0415 9.65484 1.32133 9.37502 1.6665 9.37502C2.01168 9.37502 2.2915 9.65484 2.2915 10C2.2915 14.2572 5.74264 17.7084 9.99984 17.7084C14.257 17.7084 17.7082 14.2572 17.7082 10C17.7082 5.74283 14.257 2.29169 9.99984 2.29169C9.65466 2.29169 9.37484 2.01186 9.37484 1.66669Z" fill="white"/>
<path opacity="0.5" fill-rule="evenodd" clip-rule="evenodd" d="M7.58278 1.99799C7.70708 2.32001 7.54681 2.68183 7.22479 2.80613C7.10693 2.85163 6.99046 2.89995 6.87546 2.951C6.55998 3.09105 6.19069 2.94884 6.05063 2.63335C5.91057 2.31787 6.05279 1.94858 6.36827 1.80852C6.50203 1.74914 6.63751 1.69294 6.77464 1.64C7.09665 1.5157 7.45847 1.67597 7.58278 1.99799ZM4.70622 3.5336C4.94427 3.78356 4.93462 4.17917 4.68466 4.41722C4.59327 4.50426 4.50401 4.59351 4.41697 4.6849C4.17892 4.93486 3.78331 4.94451 3.53335 4.70646C3.28339 4.46841 3.27374 4.0728 3.51179 3.82284C3.61285 3.71673 3.71649 3.6131 3.8226 3.51204C4.07256 3.27399 4.46817 3.28364 4.70622 3.5336ZM2.63311 6.05087C2.9486 6.19093 3.09081 6.56022 2.95075 6.87571C2.8997 6.9907 2.85139 7.10717 2.80589 7.22503C2.68158 7.54705 2.31977 7.70733 1.99775 7.58302C1.67573 7.45872 1.51545 7.0969 1.63976 6.77488C1.69269 6.63776 1.7489 6.50227 1.80827 6.36852C1.94833 6.05303 2.31762 5.91082 2.63311 6.05087Z" fill="white"/>
<path opacity="0.5" d="M10 6.875C10.3452 6.875 10.625 7.15482 10.625 7.5V10.2083H13.3333C13.6785 10.2083 13.9583 10.4882 13.9583 10.8333C13.9583 11.1785 13.6785 11.4583 13.3333 11.4583H10C9.65482 11.4583 9.375 11.1785 9.375 10.8333V7.5C9.375 7.15482 9.65482 6.875 10 6.875Z" fill="white"/>
</g>
</svg>
