<svg width="13" height="12" viewBox="0 0 13 12" fill="none" xmlns="http://www.w3.org/2000/svg">
<path d="M0.65791 7.41C0.65791 6.88867 0.782577 6.41833 1.03191 5.999C1.29258 5.56833 1.63824 5.22833 2.06891 4.979C2.49958 4.71833 2.98124 4.588 3.51391 4.588C3.98991 4.588 4.40358 4.67867 4.75491 4.86C5.11758 5.04133 5.46324 5.30767 5.79191 5.659C6.13191 6.01033 6.49458 6.44667 6.87991 6.968C7.26524 7.478 7.59958 7.89733 7.88291 8.226C8.16624 8.55467 8.43824 8.79833 8.69891 8.957C8.95958 9.10433 9.24858 9.178 9.56591 9.178C10.0532 9.178 10.4556 9.01933 10.7729 8.702C11.0902 8.37333 11.2489 7.94267 11.2489 7.41C11.2489 6.87733 11.0902 6.45233 10.7729 6.135C10.4556 5.80633 10.0532 5.642 9.56591 5.642C9.21458 5.642 8.88591 5.744 8.57991 5.948C8.28524 6.14067 8.00191 6.40133 7.72991 6.73C7.45791 7.05867 7.17458 7.42133 6.87991 7.818C6.59658 8.20333 6.28491 8.583 5.94491 8.957C5.60491 9.31967 5.23091 9.62567 4.82291 9.875C4.42624 10.113 3.98991 10.232 3.51391 10.232C2.98124 10.232 2.49958 10.1073 2.06891 9.858C1.63824 9.59733 1.29258 9.25733 1.03191 8.838C0.782577 8.40733 0.65791 7.93133 0.65791 7.41ZM1.84791 7.41C1.84791 7.94267 2.00658 8.37333 2.32391 8.702C2.64124 9.01933 3.04358 9.178 3.53091 9.178C3.92758 9.178 4.28458 9.05333 4.60191 8.804C4.91924 8.54333 5.20824 8.23733 5.46891 7.886C5.74091 7.52333 5.99024 7.20033 6.21691 6.917C6.61358 6.42967 6.97058 6.016 7.28791 5.676C7.61658 5.32467 7.95658 5.05833 8.30791 4.877C8.67058 4.68433 9.08991 4.588 9.56591 4.588C10.0986 4.588 10.5802 4.71833 11.0109 4.979C11.4416 5.22833 11.7816 5.56833 12.0309 5.999C12.2916 6.41833 12.4219 6.88867 12.4219 7.41C12.4219 7.93133 12.2972 8.40733 12.0479 8.838C11.7986 9.25733 11.4586 9.59733 11.0279 9.858C10.6086 10.1073 10.1326 10.232 9.59991 10.232C9.12391 10.232 8.69891 10.1413 8.32491 9.96C7.96224 9.76733 7.61091 9.49533 7.27091 9.144C6.94224 8.79267 6.58524 8.362 6.19991 7.852C5.87124 7.41 5.55958 7.02467 5.26491 6.696C4.98158 6.36733 4.69824 6.11233 4.41491 5.931C4.14291 5.73833 3.84824 5.642 3.53091 5.642C3.04358 5.642 2.64124 5.80633 2.32391 6.135C2.00658 6.45233 1.84791 6.87733 1.84791 7.41Z" fill="white"/>
</svg>
