<svg width="20" height="20" viewBox="0 0 20 20" fill="none" xmlns="http://www.w3.org/2000/svg">
<path opacity="0.5" d="M10.0003 18.3334C6.07195 18.3334 4.10777 18.3334 2.88738 17.113C1.66699 15.8926 1.66699 13.9285 1.66699 10.0001C1.66699 6.07171 1.66699 4.10752 2.88738 2.88714C4.10777 1.66675 6.07195 1.66675 10.0003 1.66675C13.9287 1.66675 15.8929 1.66675 17.1133 2.88714C18.3337 4.10752 18.3337 6.07171 18.3337 10.0001C18.3337 13.9285 18.3337 15.8926 17.1133 17.113C15.8929 18.3334 13.9287 18.3334 10.0003 18.3334Z" fill="#FFC000"/>
<path d="M10.0003 14.7916C10.3455 14.7916 10.6253 14.5118 10.6253 14.1666V9.16659C10.6253 8.82141 10.3455 8.54159 10.0003 8.54159C9.65515 8.54159 9.37533 8.82141 9.37533 9.16659V14.1666C9.37533 14.5118 9.65515 14.7916 10.0003 14.7916Z" fill="#FFC000"/>
<path d="M10.0003 5.83325C10.4606 5.83325 10.8337 6.20635 10.8337 6.66659C10.8337 7.12682 10.4606 7.49992 10.0003 7.49992C9.54009 7.49992 9.16699 7.12682 9.16699 6.66659C9.16699 6.20635 9.54009 5.83325 10.0003 5.83325Z" fill="#FFC000"/>
</svg>
