<svg width="20" height="20" viewBox="0 0 20 20" fill="none" xmlns="http://www.w3.org/2000/svg">
<path d="M4.14837 8.07091C2.49347 7.40895 1.66602 7.07797 1.66602 6.66668C1.66602 6.25539 2.49347 5.9244 4.14837 5.26244L6.48876 4.32629C8.14367 3.66432 8.97112 3.33334 9.99935 3.33334C11.0276 3.33334 11.855 3.66432 13.5099 4.32629L15.8503 5.26244C17.5052 5.9244 18.3327 6.25539 18.3327 6.66668C18.3327 7.07797 17.5052 7.40895 15.8503 8.07091L13.5099 9.00707C11.855 9.66903 11.0276 10 9.99935 10C8.97112 10 8.14367 9.66903 6.48876 9.00707L4.14837 8.07091Z" fill="#87ADF0"/>
<path fill-rule="evenodd" clip-rule="evenodd" d="M1.66602 6.66668C1.66602 7.07797 2.49347 7.40895 4.14837 8.07091L6.48876 9.00707C8.14367 9.66903 8.97112 10 9.99935 10C11.0276 10 11.855 9.66903 13.5099 9.00707L15.8503 8.07091C17.5052 7.40895 18.3327 7.07797 18.3327 6.66668C18.3327 6.25539 17.5052 5.9244 15.8503 5.26244L13.5099 4.32629C11.855 3.66432 11.0276 3.33334 9.99935 3.33334C8.97112 3.33334 8.14367 3.66432 6.48876 4.32629L4.14837 5.26244C2.49347 5.9244 1.66602 6.25539 1.66602 6.66668Z" fill="#87ADF0"/>
<path opacity="0.7" d="M4.80446 8.33334L4.14837 8.59578C2.49347 9.25774 1.66602 9.58872 1.66602 10C1.66602 10.4113 2.49347 10.7423 4.14837 11.4042L6.48876 12.3404C8.14367 13.0024 8.97112 13.3333 9.99935 13.3333C11.0276 13.3333 11.855 13.0024 13.5099 12.3404L15.8503 11.4042C17.5052 10.7423 18.3327 10.4113 18.3327 10C18.3327 9.58872 17.5052 9.25774 15.8503 8.59578L15.1942 8.33334L13.5099 9.00707C11.855 9.66903 11.0276 10 9.99935 10C8.97112 10 8.14367 9.66903 6.48876 9.00707L4.80446 8.33334Z" fill="#87ADF0"/>
<path opacity="0.4" d="M4.80446 11.6667L4.14837 11.9291C2.49347 12.5911 1.66602 12.922 1.66602 13.3333C1.66602 13.7446 2.49347 14.0756 4.14837 14.7376L6.48876 15.6737C8.14367 16.3357 8.97112 16.6667 9.99935 16.6667C11.0276 16.6667 11.855 16.3357 13.5099 15.6737L15.8503 14.7376C17.5052 14.0756 18.3327 13.7446 18.3327 13.3333C18.3327 12.922 17.5052 12.5911 15.8503 11.9291L15.1942 11.6667L13.5099 12.3404C11.855 13.0023 11.0276 13.3333 9.99935 13.3333C8.97112 13.3333 8.14367 13.0023 6.48876 12.3404L4.80446 11.6667Z" fill="#87ADF0"/>
</svg>
