<svg width="20" height="20" viewBox="0 0 20 20" fill="none" xmlns="http://www.w3.org/2000/svg">
<g clip-path="url(#clip0_67_47755)">
<path d="M8.33366 9.67026L4.22948 14.4882C3.67875 15.1347 2.69367 15.1741 2.09314 14.5735C1.49261 13.973 1.53195 12.9879 2.17846 12.4372L6.99641 8.33301" stroke="#FF4973" stroke-width="1.5" stroke-linejoin="round"/>
<path d="M15.0003 8.37334L10.8733 12.5003M8.29398 1.66699L4.16699 5.79398M7.77813 2.18284L4.68289 5.27808C4.68289 5.27808 6.23051 7.34157 7.77813 8.88919C9.32575 10.4368 11.3892 11.9844 11.3892 11.9844L14.4845 8.88919C14.4845 8.88919 12.9369 6.8257 11.3892 5.27808C9.84162 3.73046 7.77813 2.18284 7.77813 2.18284Z" stroke="#FF4973" stroke-width="1.5" stroke-linecap="round" stroke-linejoin="round"/>
<path d="M9.4373 17.9688C9.23614 18.3309 9.3666 18.7875 9.72869 18.9886C10.0908 19.1898 10.5474 19.0593 10.7485 18.6972L10.0929 18.333L9.4373 17.9688ZM10.6536 17.3237L11.3093 17.688H11.3093L10.6536 17.3237ZM15.9188 18.6972C16.1199 19.0593 16.5765 19.1898 16.9386 18.9886C17.3007 18.7875 17.4312 18.3309 17.23 17.9688L16.5744 18.333L15.9188 18.6972ZM16.0137 17.3237L16.6693 16.9595L16.6693 16.9595L16.0137 17.3237ZM15.3235 16.2974L15.8139 15.7299L15.8139 15.7299L15.3235 16.2974ZM14.6623 15.9296L14.4334 16.6438V16.6438L14.6623 15.9296ZM11.3438 16.2974L10.8535 15.7299L10.8535 15.7299L11.3438 16.2974ZM12.005 15.9296L11.7761 15.2154V15.2154L12.005 15.9296ZM9.16699 17.583C8.75278 17.583 8.41699 17.9188 8.41699 18.333C8.41699 18.7472 8.75278 19.083 9.16699 19.083L9.16699 18.333L9.16699 17.583ZM17.5003 19.083C17.9145 19.083 18.2503 18.7472 18.2503 18.333C18.2503 17.9188 17.9145 17.583 17.5003 17.583V18.333V19.083ZM10.0929 18.333L10.7485 18.6972L11.3093 17.688L10.6536 17.3237L9.99802 16.9595L9.4373 17.9688L10.0929 18.333ZM16.5744 18.333L17.23 17.9688L16.6693 16.9595L16.0137 17.3237L15.3581 17.688L15.9188 18.6972L16.5744 18.333ZM16.0137 17.3237L16.6693 16.9595C16.3896 16.456 16.1688 16.0366 15.8139 15.7299L15.3235 16.2974L14.8332 16.8649C14.9398 16.957 15.0253 17.0889 15.3581 17.688L16.0137 17.3237ZM13.3337 15.833V16.583C14.0698 16.583 14.2705 16.5916 14.4334 16.6438L14.6623 15.9296L14.8912 15.2154C14.4514 15.0744 13.9672 15.083 13.3337 15.083V15.833ZM15.3235 16.2974L15.8139 15.7299C15.5456 15.4981 15.2305 15.3241 14.8912 15.2154L14.6623 15.9296L14.4334 16.6438C14.5878 16.6933 14.7234 16.7701 14.8332 16.8649L15.3235 16.2974ZM10.6536 17.3237L11.3093 17.688C11.6421 17.0889 11.7275 16.957 11.8342 16.8649L11.3438 16.2974L10.8535 15.7299C10.4985 16.0366 10.2778 16.456 9.99802 16.9595L10.6536 17.3237ZM13.3337 15.833V15.083C12.7001 15.083 12.216 15.0744 11.7761 15.2154L12.005 15.9296L12.234 16.6438C12.3968 16.5916 12.5975 16.583 13.3337 16.583V15.833ZM11.3438 16.2974L11.8342 16.8649C11.9439 16.7701 12.0795 16.6933 12.234 16.6438L12.005 15.9296L11.7761 15.2154C11.4368 15.3241 11.1217 15.4981 10.8535 15.7299L11.3438 16.2974ZM9.16699 18.333L9.16699 19.083L17.5003 19.083V18.333V17.583L9.16699 17.583L9.16699 18.333Z" fill="#FF4973"/>
<path d="M16.667 9.69664L18.3337 8.33301M16.667 12.4239L18.3337 13.333" stroke="#FF4973" stroke-width="1.5" stroke-linecap="round" stroke-linejoin="round"/>
</g>
<defs>
<clipPath id="clip0_67_47755">
<rect width="20" height="20" fill="white"/>
</clipPath>
</defs>
</svg>
