<svg width="20" height="20" viewBox="0 0 20 20" fill="none" xmlns="http://www.w3.org/2000/svg">
<path opacity="0.4" d="M10 1.0415C6.21626 1.0415 3.125 4.04475 3.125 7.77864C3.125 10.0662 4.06157 12.0495 6.27623 13.8212C6.38705 13.9099 6.52475 13.9582 6.66667 13.9582H13.3333C13.4753 13.9582 13.6129 13.9099 13.7238 13.8212C15.9384 12.0495 16.875 10.0662 16.875 7.77864C16.875 4.04475 13.7837 1.0415 10 1.0415Z" fill="#87ADF0"/>
<path fill-rule="evenodd" clip-rule="evenodd" d="M6.27623 13.8213L6.25 13.8003V14.5833C6.25 15.1098 6.49415 15.5793 6.87542 15.8847C6.90296 17.5868 8.29134 18.9582 10 18.9582C11.7087 18.9582 13.097 17.5868 13.1246 15.8847C13.5058 15.5793 13.75 15.1098 13.75 14.5833V13.8003L13.7238 13.8213C13.6129 13.91 13.4753 13.9583 13.3333 13.9583H6.66667C6.52475 13.9583 6.38705 13.91 6.27623 13.8213ZM10 17.7082C9.18361 17.7082 8.48909 17.1864 8.23169 16.4582H11.7683C11.5109 17.1864 10.8164 17.7082 10 17.7082Z" fill="#87ADF0"/>
</svg>
