<svg width="20" height="20" viewBox="0 0 20 20" fill="none" xmlns="http://www.w3.org/2000/svg">
<path opacity="0.4" d="M10 1.04166C6.21626 1.04166 3.125 4.0449 3.125 7.77879C3.125 10.0664 4.06157 12.0496 6.27623 13.8214C6.38705 13.91 6.52475 13.9583 6.66667 13.9583H13.3333C13.4753 13.9583 13.6129 13.91 13.7238 13.8214C15.9384 12.0496 16.875 10.0664 16.875 7.77879C16.875 4.0449 13.7837 1.04166 10 1.04166Z" fill="#87ADF0"/>
<path fill-rule="evenodd" clip-rule="evenodd" d="M6.27623 13.8212L6.25 13.8002V14.5832C6.25 15.1097 6.49415 15.5792 6.87542 15.8847C6.90296 17.5868 8.29134 18.9581 10 18.9581C11.7087 18.9581 13.097 17.5868 13.1246 15.8847C13.5058 15.5792 13.75 15.1097 13.75 14.5832V13.8002L13.7238 13.8212C13.6129 13.9099 13.4753 13.9582 13.3333 13.9582H6.66667C6.52475 13.9582 6.38705 13.9099 6.27623 13.8212ZM10 17.7081C9.18361 17.7081 8.48909 17.1863 8.23169 16.4581H11.7683C11.5109 17.1863 10.8164 17.7081 10 17.7081Z" fill="#87ADF0"/>
</svg>
