<svg width="20" height="20" viewBox="0 0 20 20" fill="none" xmlns="http://www.w3.org/2000/svg">
<g opacity="0.5">
<path d="M6.66699 5.625C4.25075 5.625 2.29199 7.58375 2.29199 10C2.29199 12.4162 4.25075 14.375 6.66699 14.375H7.50033C7.8455 14.375 8.12533 14.6548 8.12533 15C8.12533 15.3452 7.8455 15.625 7.50033 15.625H6.66699C3.56039 15.625 1.04199 13.1066 1.04199 10C1.04199 6.8934 3.56039 4.375 6.66699 4.375H7.50033C7.8455 4.375 8.12533 4.65482 8.12533 5C8.12533 5.34518 7.8455 5.625 7.50033 5.625H6.66699Z" fill="#FF4973"/>
<path d="M12.5003 4.375C12.1551 4.375 11.8753 4.65482 11.8753 5C11.8753 5.34518 12.1551 5.625 12.5003 5.625H13.3337C15.7499 5.625 17.7087 7.58375 17.7087 10C17.7087 12.4162 15.7499 14.375 13.3337 14.375H12.5003C12.1551 14.375 11.8753 14.6548 11.8753 15C11.8753 15.3452 12.1551 15.625 12.5003 15.625H13.3337C16.4403 15.625 18.9587 13.1066 18.9587 10C18.9587 6.8934 16.4403 4.375 13.3337 4.375H12.5003Z" fill="#FF4973"/>
</g>
<path d="M6.875 10C6.875 9.65482 7.15482 9.375 7.5 9.375H12.5C12.8452 9.375 13.125 9.65482 13.125 10C13.125 10.3452 12.8452 10.625 12.5 10.625H7.5C7.15482 10.625 6.875 10.3452 6.875 10Z" fill="#FF4973"/>
</svg>
