<svg width="20" height="20" viewBox="0 0 20 20" fill="none" xmlns="http://www.w3.org/2000/svg">
<path d="M1.66699 13.3333C1.66699 10.9763 1.66699 9.79781 2.39923 9.06558C3.13146 8.33334 4.30997 8.33334 6.66699 8.33334H13.3337C15.6907 8.33334 16.8692 8.33334 17.6014 9.06558C18.3337 9.79781 18.3337 10.9763 18.3337 13.3333C18.3337 15.6904 18.3337 16.8689 17.6014 17.6011C16.8692 18.3333 15.6907 18.3333 13.3337 18.3333H6.66699C4.30997 18.3333 3.13146 18.3333 2.39923 17.6011C1.66699 16.8689 1.66699 15.6904 1.66699 13.3333Z" stroke="#87ADF0" stroke-width="1.5"/>
<path d="M5 8.33332V6.66666C5 3.90523 7.23858 1.66666 10 1.66666C12.7614 1.66666 15 3.90523 15 6.66666V8.33332" stroke="#87ADF0" stroke-width="1.5" stroke-linecap="round"/>
<path d="M6.66699 13.3333H6.67449M9.99283 13.3333H10.0003M13.3262 13.3333H13.3337" stroke="#87ADF0" stroke-width="2" stroke-linecap="round" stroke-linejoin="round"/>
</svg>
