<svg width="20" height="20" viewBox="0 0 20 20" fill="none" xmlns="http://www.w3.org/2000/svg">
<path fill-rule="evenodd" clip-rule="evenodd" d="M17.3574 8.92984L16.926 10.5397C16.4225 12.419 16.1707 13.3586 15.5999 13.968C15.1493 14.4492 14.566 14.7859 13.924 14.9356C13.8438 14.9543 13.7623 14.9687 13.6788 14.979C12.9163 15.0731 11.9858 14.8237 10.292 14.3699C8.41276 13.8663 7.47313 13.6146 6.86373 13.0438C6.38255 12.5931 6.04582 12.0099 5.89611 11.3678C5.70652 10.5547 5.95829 9.61508 6.46182 7.73585L6.89319 6.12597C6.96559 5.85577 7.03283 5.60483 7.09652 5.37167C7.47574 3.9833 7.73058 3.21948 8.21927 2.69771C8.66994 2.21654 9.25318 1.8798 9.89523 1.7301C10.7084 1.5405 11.648 1.79227 13.5272 2.29581C15.4065 2.79935 16.3461 3.05112 16.9555 3.62189C17.4367 4.07256 17.7734 4.6558 17.9231 5.29785C18.1127 6.11099 17.8609 7.05061 17.3574 8.92984ZM9.21002 8.1719C9.29936 7.83848 9.64207 7.64062 9.97548 7.72996L14.0002 8.80837C14.3336 8.89771 14.5315 9.24042 14.4421 9.57383C14.3528 9.90725 14.0101 10.1051 13.6767 10.0158L9.65196 8.93736C9.31854 8.84802 9.12068 8.50531 9.21002 8.1719ZM8.56264 10.5864C8.65198 10.253 8.99469 10.0552 9.3281 10.1445L11.7429 10.7916C12.0763 10.8809 12.2742 11.2236 12.1849 11.557C12.0955 11.8904 11.7528 12.0883 11.4194 11.999L9.00458 11.3519C8.67116 11.2626 8.4733 10.9199 8.56264 10.5864Z" fill="#87ADF0"/>
<path opacity="0.5" d="M13.6794 14.9787C13.5056 15.5107 13.2002 15.9919 12.7895 16.3766C12.1801 16.9474 11.2404 17.1991 9.36121 17.7027C7.48198 18.2062 6.54236 18.458 5.72921 18.2684C5.08716 18.1187 4.50393 17.7819 4.05325 17.3008C3.48248 16.6914 3.23071 15.7517 2.72717 13.8725L2.29581 12.2626C1.79227 10.3834 1.5405 9.44378 1.7301 8.63063C1.8798 7.98858 2.21654 7.40534 2.69771 6.95467C3.30712 6.3839 4.24674 6.13213 6.12597 5.62859C6.48149 5.53333 6.8034 5.44708 7.09717 5.37112C7.09714 5.37121 7.09719 5.37103 7.09717 5.37112C7.03348 5.60428 6.96624 5.85547 6.89384 6.12567L6.46248 7.73555C5.95894 9.61478 5.70717 10.5544 5.89677 11.3675C6.04647 12.0096 6.3832 12.5928 6.86438 13.0435C7.47378 13.6143 8.41341 13.866 10.2926 14.3696C11.9864 14.8234 12.9169 15.0727 13.6794 14.9787Z" fill="#87ADF0"/>
</svg>
