<svg width="20" height="20" viewBox="0 0 20 20" fill="none" xmlns="http://www.w3.org/2000/svg">
<path d="M6.45768 15.8333C6.45768 16.1785 6.17786 16.4583 5.83268 16.4583H4.16602C3.82084 16.4583 3.54102 16.1785 3.54102 15.8333C3.54102 15.4882 3.82084 15.2083 4.16602 15.2083H5.83268C6.17786 15.2083 6.45768 15.4882 6.45768 15.8333Z" fill="#87ADF0"/>
<path opacity="0.4" d="M8.33268 15V4.99999C8.33268 3.83321 8.33268 3.24983 8.10561 2.80418C7.90588 2.41217 7.58717 2.09346 7.19516 1.89373C6.74951 1.66666 6.16612 1.66666 4.99935 1.66666C3.83257 1.66666 3.24918 1.66666 2.80354 1.89373C2.41153 2.09346 2.09282 2.41217 1.89309 2.80418C1.66602 3.24983 1.66602 3.83321 1.66602 4.99999V15C1.66602 16.1668 1.66602 16.7502 1.89309 17.1958C2.09282 17.5878 2.41153 17.9065 2.80354 18.1063C3.24918 18.3333 3.83257 18.3333 4.99935 18.3333C6.16612 18.3333 6.74951 18.3333 7.19516 18.1063C7.58717 17.9065 7.90588 17.5878 8.10561 17.1958C8.33268 16.7502 8.33268 16.1668 8.33268 15Z" fill="#87ADF0"/>
<g opacity="0.7">
<path d="M8.33268 6.86898V15C8.33268 15.7655 8.33268 16.2799 8.26855 16.6691L11.0176 13.9201L15.8826 8.84543C16.6937 8.00926 17.0992 7.59117 17.2464 7.11189C17.3718 6.70313 17.3685 6.26567 17.2368 5.85888C17.0824 5.3819 16.6659 4.9654 15.833 4.13244C15.0819 3.39384 14.7064 3.02453 14.2663 2.8705C13.9041 2.74371 13.5139 2.71943 13.1388 2.80033C12.6831 2.89862 12.2646 3.21852 11.4278 3.85831L10.8327 4.36898L8.33268 6.86898Z" fill="#87ADF0"/>
<path d="M6.66842 18.2692C6.66762 18.2693 6.66682 18.2695 6.66602 18.2696V18.2716L6.66842 18.2692Z" fill="#87ADF0"/>
</g>
<path d="M13.1785 11.6667H14.9162C16.083 11.6667 16.6663 11.6667 17.112 11.8937C17.504 12.0935 17.8227 12.4122 18.0224 12.8042C18.2495 13.2498 18.2495 13.8332 18.2495 15C18.2495 16.1668 18.2495 16.7502 18.0224 17.1958C17.8227 17.5878 17.504 17.9065 17.112 18.1063C16.6663 18.3333 16.083 18.3333 14.9162 18.3333H5C5.76434 18.3333 6.27833 18.3333 6.66724 18.2695L6.66667 18.2716L6.66907 18.2692C6.87302 18.2356 7.04256 18.1843 7.19581 18.1063C7.58782 17.9065 7.90653 17.5878 8.10626 17.1958C8.18435 17.0426 8.23558 16.873 8.2692 16.6691L11.0182 13.92L13.1785 11.6667Z" fill="#87ADF0"/>
</svg>
