<svg width="16" height="16" viewBox="0 0 16 16" fill="none" xmlns="http://www.w3.org/2000/svg">
<path d="M1.3335 3.99992C1.3335 2.74284 1.3335 2.1143 1.72402 1.72378C2.11454 1.33325 2.74308 1.33325 4.00016 1.33325C5.25724 1.33325 5.88578 1.33325 6.27631 1.72378C6.66683 2.1143 6.66683 2.74284 6.66683 3.99992V11.9999C6.66683 13.257 6.66683 13.8855 6.27631 14.2761C5.88578 14.6666 5.25724 14.6666 4.00016 14.6666C2.74308 14.6666 2.11454 14.6666 1.72402 14.2761C1.3335 13.8855 1.3335 13.257 1.3335 11.9999V3.99992Z" fill="white" fill-opacity="0.3"/>
<path opacity="0.5" d="M9.3335 3.99992C9.3335 2.74284 9.3335 2.1143 9.72402 1.72378C10.1145 1.33325 10.7431 1.33325 12.0002 1.33325C13.2572 1.33325 13.8858 1.33325 14.2763 1.72378C14.6668 2.1143 14.6668 2.74284 14.6668 3.99992V11.9999C14.6668 13.257 14.6668 13.8855 14.2763 14.2761C13.8858 14.6666 13.2572 14.6666 12.0002 14.6666C10.7431 14.6666 10.1145 14.6666 9.72402 14.2761C9.3335 13.8855 9.3335 13.257 9.3335 11.9999V3.99992Z" fill="white" fill-opacity="0.3"/>
</svg>
