<svg width="16" height="16" viewBox="0 0 16 16" fill="none" xmlns="http://www.w3.org/2000/svg">
<path d="M1.33301 3.99992C1.33301 2.74284 1.33301 2.1143 1.72353 1.72378C2.11406 1.33325 2.7426 1.33325 3.99967 1.33325C5.25675 1.33325 5.88529 1.33325 6.27582 1.72378C6.66634 2.1143 6.66634 2.74284 6.66634 3.99992V11.9999C6.66634 13.257 6.66634 13.8855 6.27582 14.2761C5.88529 14.6666 5.25675 14.6666 3.99967 14.6666C2.7426 14.6666 2.11406 14.6666 1.72353 14.2761C1.33301 13.8855 1.33301 13.257 1.33301 11.9999V3.99992Z" fill="#FFC000"/>
<path opacity="0.5" d="M9.33301 3.99992C9.33301 2.74284 9.33301 2.1143 9.72353 1.72378C10.1141 1.33325 10.7426 1.33325 11.9997 1.33325C13.2568 1.33325 13.8853 1.33325 14.2758 1.72378C14.6663 2.1143 14.6663 2.74284 14.6663 3.99992V11.9999C14.6663 13.257 14.6663 13.8855 14.2758 14.2761C13.8853 14.6666 13.2568 14.6666 11.9997 14.6666C10.7426 14.6666 10.1141 14.6666 9.72353 14.2761C9.33301 13.8855 9.33301 13.257 9.33301 11.9999V3.99992Z" fill="#FFC000"/>
</svg>
