<svg width="20" height="20" viewBox="0 0 20 20" fill="none" xmlns="http://www.w3.org/2000/svg">
<path d="M1.66699 5.00008C1.66699 3.42873 1.66699 2.64306 2.15515 2.1549C2.6433 1.66675 3.42898 1.66675 5.00033 1.66675C6.57167 1.66675 7.35735 1.66675 7.8455 2.1549C8.33366 2.64306 8.33366 3.42873 8.33366 5.00008V15.0001C8.33366 16.5714 8.33366 17.3571 7.8455 17.8453C7.35735 18.3334 6.57167 18.3334 5.00033 18.3334C3.42898 18.3334 2.6433 18.3334 2.15515 17.8453C1.66699 17.3571 1.66699 16.5714 1.66699 15.0001V5.00008Z" fill="#87ADF0"/>
<path opacity="0.5" d="M11.667 5.00008C11.667 3.42873 11.667 2.64306 12.1551 2.1549C12.6433 1.66675 13.429 1.66675 15.0003 1.66675C16.5717 1.66675 17.3573 1.66675 17.8455 2.1549C18.3337 2.64306 18.3337 3.42873 18.3337 5.00008V15.0001C18.3337 16.5714 18.3337 17.3571 17.8455 17.8453C17.3573 18.3334 16.5717 18.3334 15.0003 18.3334C13.429 18.3334 12.6433 18.3334 12.1551 17.8453C11.667 17.3571 11.667 16.5714 11.667 15.0001V5.00008Z" fill="#87ADF0"/>
</svg>
