<svg width="20" height="20" viewBox="0 0 20 20" fill="none" xmlns="http://www.w3.org/2000/svg">
<g clip-path="url(#clip0_136_6399)">
<path opacity="0.5" d="M0.833984 10C0.833984 5.6788 0.833984 3.5182 2.17641 2.17577C3.51884 0.833344 5.67944 0.833344 10.0007 0.833344C14.3219 0.833344 16.4825 0.833344 17.8249 2.17577C19.1673 3.5182 19.1673 5.6788 19.1673 10C19.1673 14.3212 19.1673 16.4818 17.8249 17.8242C16.4825 19.1667 14.3219 19.1667 10.0007 19.1667C5.67944 19.1667 3.51884 19.1667 2.17641 17.8242C0.833984 16.4818 0.833984 14.3212 0.833984 10Z" fill="#87ADF0"/>
<path d="M11.606 11.9182C11.8102 11.7589 11.9954 11.5738 12.3657 11.2034L16.9827 6.58646C17.0943 6.47484 17.0432 6.28259 16.8941 6.23085C16.3491 6.04177 15.6402 5.68679 14.977 5.02364C14.3139 4.36048 13.9589 3.65156 13.7698 3.10658C13.7181 2.95744 13.5258 2.90636 13.4142 3.01798L8.79723 7.63494L8.79722 7.63495C8.42688 8.00529 8.24171 8.19046 8.08246 8.39464C7.8946 8.63548 7.73355 8.89608 7.60214 9.17182C7.49074 9.40556 7.40793 9.654 7.2423 10.1509L7.02829 10.7929L6.688 11.8138L6.36892 12.771C6.28742 13.0155 6.35106 13.2851 6.53331 13.4674C6.71556 13.6496 6.98513 13.7132 7.22965 13.6317L8.18688 13.3127L9.20776 12.9724L9.84979 12.7584L9.8498 12.7584C10.3467 12.5927 10.5951 12.5099 10.8288 12.3985C11.1046 12.2671 11.3652 12.1061 11.606 11.9182Z" fill="#87ADF0"/>
<path d="M18.4283 5.14089C19.4137 4.15548 19.4137 2.55781 18.4283 1.5724C17.4428 0.586991 15.8452 0.586991 14.8598 1.5724L14.7113 1.72083C14.5681 1.86407 14.5032 2.06413 14.539 2.26351C14.5615 2.38893 14.6032 2.5723 14.6791 2.7911C14.831 3.22867 15.1176 3.80308 15.6576 4.34305C16.1976 4.88302 16.772 5.16971 17.2096 5.32152C17.4284 5.39743 17.6117 5.43915 17.7372 5.46166C17.9365 5.49745 18.1366 5.43255 18.2798 5.28932L18.4283 5.14089Z" fill="#87ADF0"/>
</g>
<defs>
<clipPath id="clip0_136_6399">
<rect width="20" height="20" fill="white"/>
</clipPath>
</defs>
</svg>
