<svg width="20" height="20" viewBox="0 0 20 20" fill="none" xmlns="http://www.w3.org/2000/svg">
<path opacity="0.5" fill-rule="evenodd" clip-rule="evenodd" d="M2.70801 18.3333C2.70801 17.9881 2.98783 17.7083 3.33301 17.7083H16.6663C17.0115 17.7083 17.2913 17.9881 17.2913 18.3333C17.2913 18.6784 17.0115 18.9583 16.6663 18.9583H3.33301C2.98783 18.9583 2.70801 18.6784 2.70801 18.3333Z" fill="white" fill-opacity="0.3"/>
<path opacity="0.5" d="M15.9004 6.1431C16.9244 5.11907 16.9244 3.4588 15.9004 2.43477C14.8764 1.41074 13.2161 1.41074 12.1921 2.43477L11.6006 3.02626C11.6087 3.05072 11.6171 3.07551 11.6258 3.10063C11.8426 3.72553 12.2517 4.54472 13.0212 5.31423C13.7907 6.08374 14.6099 6.4928 15.2348 6.7096C15.2598 6.71828 15.2845 6.72664 15.3088 6.7347L15.9004 6.1431Z" fill="white" fill-opacity="0.3"/>
<path d="M11.6262 2.99976L11.6008 3.02522C11.6089 3.04968 11.6173 3.07448 11.626 3.0996C11.8428 3.7245 12.2518 4.54368 13.0214 5.3132C13.7909 6.08271 14.6101 6.49176 15.235 6.70857C15.2597 6.71717 15.2842 6.72546 15.3084 6.73346L9.60014 12.4417C9.21531 12.8265 9.02285 13.019 8.81068 13.1845C8.56039 13.3797 8.28958 13.547 8.00304 13.6836C7.76014 13.7994 7.50196 13.8854 6.98562 14.0575L4.2628 14.9652C4.0087 15.0498 3.72856 14.9837 3.53916 14.7943C3.34977 14.6049 3.28364 14.3248 3.36834 14.0707L4.27595 11.3479C4.44806 10.8315 4.53412 10.5734 4.64988 10.3304C4.78644 10.0439 4.95381 9.7731 5.14903 9.52281C5.31451 9.31065 5.50694 9.11822 5.89175 8.7334L11.6262 2.99976Z" fill="white" fill-opacity="0.3"/>
</svg>
