<svg width="20" height="20" viewBox="0 0 20 20" fill="none" xmlns="http://www.w3.org/2000/svg">
<path d="M18.3337 9.99999C18.3337 14.6024 14.6027 18.3333 10.0003 18.3333C5.39795 18.3333 1.66699 14.6024 1.66699 9.99999C1.66699 5.39762 5.39795 1.66666 10.0003 1.66666C14.6027 1.66666 18.3337 5.39762 18.3337 9.99999Z" stroke="#87ADF0" stroke-width="1.5"/>
<path d="M2.5 6.67308C2.5 6.67308 4.94764 9.16663 8.69764 9.16663C11.25 9.16663 12.6047 7.68906 13.75 7.29644C15.9024 6.55856 17.5 6.67308 17.5 6.67308" stroke="#87ADF0" stroke-width="1.5" stroke-linecap="round"/>
<path d="M2.50046 11.6731C2.50046 11.6731 4.24119 11.5586 6.58648 12.2965C7.83438 12.6891 9.31049 14.1667 12.0916 14.1667C14.6014 14.1667 16.5758 13.2258 17.7256 12.5" stroke="#87ADF0" stroke-width="1.5" stroke-linecap="round"/>
</svg>
