<svg width="20" height="20" viewBox="0 0 20 20" fill="none" xmlns="http://www.w3.org/2000/svg">
<path opacity="0.5" d="M0.833008 10C0.833008 6.87522 0.833008 5.31283 1.62877 4.21756C1.88577 3.86383 2.19684 3.55276 2.55057 3.29576C3.64584 2.5 5.20823 2.5 8.33301 2.5H11.6663C14.7911 2.5 16.3535 2.5 17.4488 3.29576C17.8025 3.55276 18.1136 3.86383 18.3706 4.21756C19.1663 5.31283 19.1663 6.87522 19.1663 10C19.1663 13.1248 19.1663 14.6872 18.3706 15.7824C18.1136 16.1362 17.8025 16.4472 17.4488 16.7042C16.3535 17.5 14.7911 17.5 11.6663 17.5H8.33301C5.20823 17.5 3.64584 17.5 2.55057 16.7042C2.19684 16.4472 1.88577 16.1362 1.62877 15.7824C0.833008 14.6872 0.833008 13.1248 0.833008 10Z" fill="#87ADF0"/>
<path d="M10.625 2.5C10.625 2.15482 10.3452 1.875 10 1.875C9.65482 1.875 9.375 2.15482 9.375 2.5V4.16667C9.375 4.51184 9.65482 4.79167 10 4.79167C10.3452 4.79167 10.625 4.51184 10.625 4.16667V2.5Z" fill="#87ADF0"/>
<path d="M6.66699 8.125C6.32181 8.125 6.04199 8.40482 6.04199 8.75C6.04199 9.09518 6.32181 9.375 6.66699 9.375H13.3337C13.6788 9.375 13.9587 9.09518 13.9587 8.75C13.9587 8.40482 13.6788 8.125 13.3337 8.125H6.66699Z" fill="#87ADF0"/>
<path d="M6.66699 11.0417C6.32181 11.0417 6.04199 11.3215 6.04199 11.6667C6.04199 12.0118 6.32181 12.2917 6.66699 12.2917H11.2503C11.5955 12.2917 11.8753 12.0118 11.8753 11.6667C11.8753 11.3215 11.5955 11.0417 11.2503 11.0417H6.66699Z" fill="#87ADF0"/>
</svg>
