<svg width="16" height="16" viewBox="0 0 16 16" fill="none" xmlns="http://www.w3.org/2000/svg">
<path opacity="0.5" d="M14.6668 8.00001C14.6668 11.6819 11.6821 14.6667 8.00016 14.6667C4.31826 14.6667 1.3335 11.6819 1.3335 8.00001C1.3335 4.31811 4.31826 1.33334 8.00016 1.33334C11.6821 1.33334 14.6668 4.31811 14.6668 8.00001Z" fill="white" fill-opacity="0.4"/>
<path d="M8.5 6C8.5 5.72386 8.27614 5.5 8 5.5C7.72386 5.5 7.5 5.72386 7.5 6L7.5 7.50002H6C5.72386 7.50002 5.5 7.72387 5.5 8.00002C5.5 8.27616 5.72386 8.50002 6 8.50002H7.5V10C7.5 10.2761 7.72386 10.5 8 10.5C8.27614 10.5 8.5 10.2761 8.5 10L8.5 8.50002H10C10.2761 8.50002 10.5 8.27616 10.5 8.00002C10.5 7.72387 10.2761 7.50002 10 7.50002H8.5V6Z" fill="white" fill-opacity="0.4"/>
</svg>
