<svg width="20" height="20" viewBox="0 0 20 20" fill="none" xmlns="http://www.w3.org/2000/svg">
<path opacity="0.5" d="M10.0003 18.3334C6.07195 18.3334 4.10777 18.3334 2.88738 17.113C1.66699 15.8926 1.66699 13.9285 1.66699 10.0001C1.66699 6.07171 1.66699 4.10752 2.88738 2.88714C4.10777 1.66675 6.07195 1.66675 10.0003 1.66675C13.9287 1.66675 15.8929 1.66675 17.1133 2.88714C18.3337 4.10752 18.3337 6.07171 18.3337 10.0001C18.3337 13.9285 18.3337 15.8926 17.1133 17.113C15.8929 18.3334 13.9287 18.3334 10.0003 18.3334Z" fill="#87ADF0"/>
<path d="M10 6.45825C9.48223 6.45825 9.0625 6.87798 9.0625 7.39575C9.0625 7.74093 8.78268 8.02075 8.4375 8.02075C8.09232 8.02075 7.8125 7.74093 7.8125 7.39575C7.8125 6.18763 8.79188 5.20825 10 5.20825C11.2081 5.20825 12.1875 6.18763 12.1875 7.39575C12.1875 7.98812 11.9512 8.52657 11.5691 8.91989C11.4923 8.99903 11.4189 9.0723 11.349 9.1422L11.3489 9.14222C11.1691 9.32193 11.0115 9.47936 10.8733 9.657C10.6907 9.89152 10.625 10.0639 10.625 10.2083V10.8333C10.625 11.1784 10.3452 11.4583 10 11.4583C9.65482 11.4583 9.375 11.1784 9.375 10.8333V10.2083C9.375 9.66226 9.62917 9.22028 9.88681 8.88926C10.0774 8.64433 10.317 8.4052 10.5115 8.21114L10.5115 8.21114C10.5701 8.1526 10.6247 8.09816 10.6725 8.0489C10.8372 7.87945 10.9375 7.64996 10.9375 7.39575C10.9375 6.87798 10.5178 6.45825 10 6.45825Z" fill="#87ADF0"/>
<path d="M10 14.1666C10.4602 14.1666 10.8333 13.7935 10.8333 13.3333C10.8333 12.873 10.4602 12.4999 10 12.4999C9.53976 12.4999 9.16667 12.873 9.16667 13.3333C9.16667 13.7935 9.53976 14.1666 10 14.1666Z" fill="#87ADF0"/>
</svg>
