<svg width="20" height="20" viewBox="0 0 20 20" fill="none" xmlns="http://www.w3.org/2000/svg">
<path opacity="0.5" d="M2.88738 2.88714C1.66699 4.10752 1.66699 6.07171 1.66699 10.0001C1.66699 13.9285 1.66699 15.8926 2.88738 17.113C4.10777 18.3334 6.07195 18.3334 10.0003 18.3334C13.9287 18.3334 15.8929 18.3334 17.1133 17.113C18.3337 15.8926 18.3337 13.9285 18.3337 10.0001C18.3337 6.07171 18.3337 4.10752 17.1133 2.88714C15.8929 1.66675 13.9287 1.66675 10.0003 1.66675C6.07195 1.66675 4.10777 1.66675 2.88738 2.88714Z" fill="#FFC000"/>
<path d="M10.0083 4.375C7.18704 4.375 4.86144 6.4999 4.55081 9.23611H4.16701C3.91414 9.23611 3.68619 9.38848 3.5895 9.62213C3.49282 9.85578 3.54645 10.1247 3.72537 10.3034L4.69892 11.2756C4.94293 11.5193 5.33819 11.5193 5.5822 11.2756L6.55575 10.3034C6.73468 10.1247 6.78831 9.85578 6.69162 9.62213C6.59493 9.38848 6.36698 9.23611 6.11411 9.23611H5.81143C6.11401 7.19349 7.87712 5.625 10.0083 5.625C11.2845 5.625 12.4283 6.18674 13.2069 7.07789C13.434 7.33783 13.8288 7.36444 14.0888 7.13733C14.3487 6.91022 14.3753 6.51538 14.1482 6.25545C13.1421 5.10392 11.66 4.375 10.0083 4.375Z" fill="#FFC000"/>
<path d="M15.3018 8.72442C15.0578 8.48075 14.6625 8.48075 14.4185 8.72442L13.445 9.69664C13.2661 9.87533 13.2124 10.1442 13.3091 10.3779C13.4058 10.6115 13.6338 10.7639 13.8866 10.7639H14.1893C13.8867 12.8065 12.1236 14.375 9.99242 14.375C8.71627 14.375 7.57244 13.8133 6.79384 12.9221C6.56673 12.6622 6.1719 12.6356 5.91196 12.8627C5.65202 13.0898 5.62541 13.4846 5.85252 13.7446C6.85862 14.8961 8.34075 15.625 9.99242 15.625C12.8137 15.625 15.1393 13.5001 15.4499 10.7639H15.8337C16.0866 10.7639 16.3145 10.6115 16.4112 10.3779C16.5079 10.1442 16.4543 9.87533 16.2754 9.69664L15.3018 8.72442Z" fill="#FFC000"/>
</svg>
