<svg width="20" height="20" viewBox="0 0 20 20" fill="none" xmlns="http://www.w3.org/2000/svg">
<path d="M10.0661 1.875C6.07149 1.875 2.78764 4.9275 2.46745 8.81944H1.66701C1.41378 8.81944 1.18557 8.97225 1.08912 9.2064C0.992668 9.44055 1.04704 9.70976 1.22681 9.88812L2.62665 11.277C2.87033 11.5188 3.26338 11.5188 3.50706 11.277L4.9069 9.88812C5.08667 9.70976 5.14104 9.44055 5.04459 9.2064C4.94814 8.97225 4.71993 8.81944 4.4667 8.81944H3.72266C4.03909 5.62639 6.75432 3.125 10.0661 3.125C12.374 3.125 14.3942 4.34037 15.5133 6.16066C15.6941 6.45471 16.079 6.54654 16.3731 6.36576C16.6671 6.18499 16.759 5.80006 16.5782 5.50601C15.2395 3.32856 12.8231 1.875 10.0661 1.875Z" fill="#87ADF0"/>
<path opacity="0.5" d="M17.3674 8.72223C17.1239 8.48159 16.7321 8.48159 16.4887 8.72223L15.0835 10.1111C14.9032 10.2893 14.8484 10.5587 14.9447 10.7931C15.041 11.0276 15.2694 11.1806 15.5228 11.1806H16.2721C15.9544 14.3719 13.2297 16.8751 9.90204 16.8751C7.58329 16.8751 5.55463 15.6587 4.43137 13.8385C4.2501 13.5448 3.86501 13.4536 3.57127 13.6349C3.27752 13.8162 3.18635 14.2012 3.36763 14.495C4.71147 16.6726 7.13646 18.1251 9.90204 18.1251C13.9086 18.1251 17.206 15.0744 17.5273 11.1806H18.3332C18.5867 11.1806 18.815 11.0276 18.9113 10.7931C19.0076 10.5587 18.9528 10.2893 18.7726 10.1111L17.3674 8.72223Z" fill="#87ADF0"/>
</svg>
