<svg width="20" height="20" viewBox="0 0 20 20" fill="none" xmlns="http://www.w3.org/2000/svg">
<path d="M3.06586 9.44444H2.31586V9.44444H3.06586ZM3.06586 10.8333L2.53762 11.3657C2.83003 11.6559 3.30169 11.6559 3.5941 11.3657L3.06586 10.8333ZM4.99394 9.97685C5.28799 9.68511 5.28985 9.21024 4.99811 8.9162C4.70637 8.62216 4.2315 8.6203 3.93746 8.91204L4.4657 9.44444L4.99394 9.97685ZM2.19426 8.91204C1.90022 8.6203 1.42535 8.62216 1.13361 8.9162C0.841866 9.21024 0.843731 9.68511 1.13777 9.97685L1.66602 9.44444L2.19426 8.91204ZM15.4058 6.22612C15.6228 6.57899 16.0847 6.68918 16.4375 6.47225C16.7904 6.25532 16.9006 5.79341 16.6837 5.44054L16.0447 5.83333L15.4058 6.22612ZM10.0651 2.5V1.75C5.79086 1.75 2.31586 5.18938 2.31586 9.44444H3.06586H3.81586C3.81586 6.02889 6.60816 3.25 10.0651 3.25V2.5ZM3.06586 9.44444H2.31586L2.31586 10.8333H3.06586H3.81586L3.81586 9.44444L3.06586 9.44444ZM3.06586 10.8333L3.5941 11.3657L4.99394 9.97685L4.4657 9.44444L3.93746 8.91204L2.53762 10.3009L3.06586 10.8333ZM3.06586 10.8333L3.5941 10.3009L2.19426 8.91204L1.66602 9.44444L1.13777 9.97685L2.53762 11.3657L3.06586 10.8333ZM16.0447 5.83333L16.6837 5.44054C15.3231 3.22738 12.867 1.75 10.0651 1.75V2.5V3.25C12.3281 3.25 14.3087 4.44155 15.4058 6.22612L16.0447 5.83333Z" fill="#87ADF0"/>
<path d="M16.9289 9.16666L17.4561 8.63324C17.164 8.34446 16.6938 8.34446 16.4017 8.63324L16.9289 9.16666ZM14.9965 10.0221C14.7019 10.3133 14.6991 10.7882 14.9903 11.0828C15.2815 11.3774 15.7563 11.3801 16.0509 11.089L15.5237 10.5555L14.9965 10.0221ZM17.8069 11.089C18.1015 11.3801 18.5763 11.3774 18.8675 11.0828C19.1587 10.7882 19.1559 10.3133 18.8613 10.0221L18.3341 10.5555L17.8069 11.089ZM4.53864 13.7728C4.32111 13.4203 3.85901 13.3109 3.50651 13.5284C3.15402 13.7459 3.04461 14.208 3.26214 14.5605L3.90039 14.1667L4.53864 13.7728ZM9.90293 17.5V18.25C14.1892 18.25 17.6789 14.8133 17.6789 10.5555H16.9289H16.1789C16.1789 13.9684 13.3773 16.75 9.90293 16.75V17.5ZM16.9289 10.5555H17.6789V9.16666H16.9289H16.1789V10.5555H16.9289ZM16.9289 9.16666L16.4017 8.63324L14.9965 10.0221L15.5237 10.5555L16.0509 11.089L17.4561 9.70007L16.9289 9.16666ZM16.9289 9.16666L16.4017 9.70007L17.8069 11.089L18.3341 10.5555L18.8613 10.0221L17.4561 8.63324L16.9289 9.16666ZM3.90039 14.1667L3.26214 14.5605C4.62804 16.7739 7.09266 18.25 9.90293 18.25V17.5V16.75C7.62886 16.75 5.63984 15.5572 4.53864 13.7728L3.90039 14.1667Z" fill="#87ADF0"/>
</svg>
