<svg width="20" height="20" viewBox="0 0 20 20" fill="none" xmlns="http://www.w3.org/2000/svg">
<path fill-rule="evenodd" clip-rule="evenodd" d="M2.8146 4.23533C2.5 4.68356 2.5 6.01588 2.5 8.68054V9.99279C2.5 14.6912 6.03247 16.9712 8.2488 17.9394C8.85001 18.202 9.15062 18.3333 10 18.3333V1.66666C9.32384 1.66666 8.67082 1.89019 7.36477 2.33725L6.88743 2.50065C4.38194 3.35829 3.12919 3.78711 2.8146 4.23533Z" fill="#87ADF0"/>
<path opacity="0.5" d="M17.5 9.99279V8.68054C17.5 6.01588 17.5 4.68356 17.1854 4.23533C16.8708 3.78711 15.6181 3.35829 13.1126 2.50065L12.6352 2.33725C11.3292 1.89019 10.6762 1.66666 10 1.66666V18.3333C10.8494 18.3333 11.15 18.202 11.7512 17.9394C13.9675 16.9712 17.5 14.6912 17.5 9.99279Z" fill="#87ADF0"/>
</svg>
