<svg width="20" height="20" viewBox="0 0 20 20" fill="none" xmlns="http://www.w3.org/2000/svg">
<path opacity="0.5" d="M4.30932 2.6433C3.33301 3.61961 3.33301 5.19096 3.33301 8.33366V11.667C3.33301 14.8097 3.33301 16.381 4.30932 17.3573C5.28563 18.3337 6.85698 18.3337 9.99967 18.3337C13.1424 18.3337 14.7137 18.3337 15.69 17.3573C16.6663 16.381 16.6663 14.8097 16.6663 11.667V8.33366C16.6663 5.19096 16.6663 3.61961 15.69 2.6433C14.7137 1.66699 13.1424 1.66699 9.99967 1.66699C6.85698 1.66699 5.28563 1.66699 4.30932 2.6433Z" fill="#FF4973"/>
<path d="M7.5 3.54199C7.15482 3.54199 6.875 3.82181 6.875 4.16699C6.875 4.51217 7.15482 4.79199 7.5 4.79199H12.5C12.8452 4.79199 13.125 4.51217 13.125 4.16699C13.125 3.82181 12.8452 3.54199 12.5 3.54199H7.5Z" fill="#FF4973"/>
<path d="M10 15.8337C10.9205 15.8337 11.6667 15.0875 11.6667 14.167C11.6667 13.2465 10.9205 12.5003 10 12.5003C9.07953 12.5003 8.33333 13.2465 8.33333 14.167C8.33333 15.0875 9.07953 15.8337 10 15.8337Z" fill="#FF4973"/>
</svg>
