<svg width="16" height="16" viewBox="0 0 16 16" fill="none" xmlns="http://www.w3.org/2000/svg">
<g clip-path="url(#clip0_62_44385)">
<ellipse cx="10.0002" cy="8.33325" rx="0.666667" ry="1" fill="#00FF95"/>
<ellipse cx="6.00016" cy="8.33325" rx="0.666667" ry="1" fill="#00FF95"/>
<path d="M2.6665 8.66667C2.6665 6.46678 2.6665 5.36683 3.44755 4.68342C4.2286 4 5.48568 4 7.99984 4C10.514 4 11.7711 4 12.5521 4.68342C13.3332 5.36683 13.3332 6.46678 13.3332 8.66667C13.3332 10.8666 13.3332 11.9665 12.5521 12.6499C11.7711 13.3333 10.514 13.3333 7.99984 13.3333C5.48568 13.3333 4.2286 13.3333 3.44755 12.6499C2.6665 11.9665 2.6665 10.8666 2.6665 8.66667Z" stroke="#00FF95" stroke-width="1.5"/>
<path d="M2.66647 6.53442L2.03405 6.74523C1.37401 6.96524 1.04399 7.07525 0.855235 7.33714C0.666476 7.59904 0.666486 7.94691 0.666504 8.64265L0.666506 8.691C0.666521 9.26483 0.666529 9.55174 0.804655 9.78649C0.942781 10.0212 1.19359 10.1606 1.6952 10.4393L2.66647 11" stroke="#00FF95" stroke-width="1.5"/>
<path d="M13.3335 6.53442L13.966 6.74523C14.626 6.96524 14.956 7.07525 15.1448 7.33714C15.3335 7.59904 15.3335 7.94691 15.3335 8.64265L15.3335 8.691C15.3335 9.26483 15.3335 9.55174 15.1953 9.78649C15.0572 10.0212 14.8064 10.1606 14.3048 10.4393L13.3335 11" stroke="#00FF95" stroke-width="1.5"/>
<path d="M5.3335 4L5.3335 2" stroke="#00FF95" stroke-width="1.5" stroke-linecap="round"/>
<path d="M10 4L10 2" stroke="#00FF95" stroke-width="1.5" stroke-linecap="round"/>
</g>
<defs>
<clipPath id="clip0_62_44385">
<rect width="16" height="16" fill="white"/>
</clipPath>
</defs>
</svg>
