<svg width="20" height="20" viewBox="0 0 20 20" fill="none" xmlns="http://www.w3.org/2000/svg">
<g clip-path="url(#clip0_39_1740)">
<ellipse cx="12.5003" cy="10.4167" rx="0.833333" ry="1.25" fill="#87ADF0"/>
<ellipse cx="7.50033" cy="10.4167" rx="0.833333" ry="1.25" fill="#87ADF0"/>
<path d="M3.33301 10.8333C3.33301 8.08347 3.33301 6.70854 4.30932 5.85427C5.28563 5 6.85698 5 9.99967 5C13.1424 5 14.7137 5 15.69 5.85427C16.6663 6.70854 16.6663 8.08347 16.6663 10.8333C16.6663 13.5832 16.6663 14.9581 15.69 15.8124C14.7137 16.6667 13.1424 16.6667 9.99967 16.6667C6.85698 16.6667 5.28563 16.6667 4.30932 15.8124C3.33301 14.9581 3.33301 13.5832 3.33301 10.8333Z" stroke="#87ADF0" stroke-width="1.5"/>
<path d="M3.33296 8.16803L2.54244 8.43154C1.71739 8.70655 1.30487 8.84406 1.06892 9.17143C0.832973 9.4988 0.832985 9.93364 0.833008 10.8033L0.83301 10.8638C0.833029 11.581 0.833039 11.9397 1.0057 12.2331C1.17835 12.5265 1.49187 12.7007 2.11888 13.0491L3.33296 13.75" stroke="#87ADF0" stroke-width="1.5"/>
<path d="M16.667 8.16803L17.4576 8.43154C18.2826 8.70655 18.6951 8.84406 18.9311 9.17143C19.167 9.4988 19.167 9.93364 19.167 10.8033L19.167 10.8638C19.167 11.581 19.167 11.9397 18.9943 12.2331C18.8216 12.5265 18.5081 12.7007 17.8811 13.0491L16.667 13.75" stroke="#87ADF0" stroke-width="1.5"/>
<path d="M6.66699 5L6.66699 2.5" stroke="#87ADF0" stroke-width="1.5" stroke-linecap="round"/>
<path d="M12.5 5L12.5 2.5" stroke="#87ADF0" stroke-width="1.5" stroke-linecap="round"/>
</g>
<defs>
<clipPath id="clip0_39_1740">
<rect width="20" height="20" fill="white"/>
</clipPath>
</defs>
</svg>
