<svg width="20" height="20" viewBox="0 0 20 20" fill="none" xmlns="http://www.w3.org/2000/svg">
<path opacity="0.5" d="M2.8864 17.1129C4.10679 18.3333 6.07098 18.3333 9.99935 18.3333C13.9277 18.3333 15.8919 18.3333 17.1123 17.1129C18.3327 15.8925 18.3327 13.9284 18.3327 9.99999C18.3327 6.07162 18.3327 4.10743 17.1123 2.88704C15.8919 1.66666 13.9277 1.66666 9.99935 1.66666C6.07098 1.66666 4.10679 1.66666 2.8864 2.88704C1.66602 4.10743 1.66602 6.07162 1.66602 9.99999C1.66602 13.9284 1.66602 15.8925 2.8864 17.1129Z" fill="#87ADF0"/>
<path d="M11.0423 5.83337C11.0423 5.57284 11.2039 5.33964 11.4479 5.24817C11.6918 5.15669 11.9669 5.22612 12.1382 5.42241L14.6382 8.287C14.8652 8.54706 14.8384 8.94188 14.5783 9.16885C14.3182 9.39581 13.9234 9.36898 13.6964 9.10891L12.2923 7.50004L12.2923 14.1667C12.2923 14.5119 12.0125 14.7917 11.6673 14.7917C11.3222 14.7917 11.0423 14.5119 11.0423 14.1667L11.0423 5.83337Z" fill="#87ADF0"/>
<path d="M6.30488 10.8912C6.07792 10.6311 5.6831 10.6043 5.42303 10.8312C5.16297 11.0582 5.13614 11.453 5.3631 11.7131L7.8631 14.5777C8.03441 14.774 8.30951 14.8434 8.55345 14.7519C8.79739 14.6604 8.95899 14.4272 8.95899 14.1667V5.83337C8.95899 5.48819 8.67917 5.20837 8.33399 5.20837C7.98882 5.20837 7.70899 5.48819 7.70899 5.83337V12.5L6.30488 10.8912Z" fill="#87ADF0"/>
</svg>
