<svg width="20" height="20" viewBox="0 0 20 20" fill="none" xmlns="http://www.w3.org/2000/svg">
<path d="M9.87659 2.5C10.1683 2.503 10.4543 2.58246 10.6121 2.85382C11.2698 3.98453 11.7652 5.25976 12.3531 6.4307C12.7251 7.17137 13.2714 7.13309 13.9686 7.21452L15.7826 7.43476C16.1288 7.4776 16.5197 7.49152 16.8521 7.5995C17.0914 7.67735 17.2936 7.8282 17.4083 8.06446C17.5194 8.29384 17.5317 8.55328 17.4334 8.79003C17.2361 9.26559 15.5346 10.8664 15.0567 11.3479C14.826 11.58 14.5176 11.8375 14.3615 12.1319C14.0617 12.697 14.9336 16.0123 14.673 16.817C14.5891 17.0842 14.4032 17.3035 14.1591 17.4233C13.6841 17.6575 13.1656 17.302 12.7502 17.0688C12.2896 16.8116 11.8314 16.55 11.3756 16.2839C10.77 15.9287 10.156 15.4032 9.4531 15.7648C8.47917 16.2657 7.52298 16.8224 6.54048 17.3031C6.43291 17.3551 6.29124 17.4018 6.17243 17.4091C5.94212 17.4233 5.71603 17.3401 5.54544 17.1783C5.14427 16.7983 5.25607 16.3438 5.33277 15.8556C5.44885 15.1167 5.46305 14.2884 5.81097 13.6155C6.20664 12.8503 7.00443 12.4948 7.71139 12.1177L9.37104 11.2377C9.60734 11.1138 10.4244 10.7711 10.4034 10.4705C10.2408 10.3006 9.49803 10.4731 9.24573 10.5113L7.29964 10.8068C6.69113 10.8989 5.94026 11.0568 5.3363 10.984C4.63797 10.8649 4.01871 10.3027 3.48914 9.85781C3.17751 9.56643 2.60233 9.21136 2.52315 8.74182C2.33494 7.62578 3.33577 7.57748 4.02802 7.485L5.95629 7.22971C7.38985 7.04164 7.20608 7.17402 7.86425 5.80225L8.72347 4.01061C9.01057 3.41178 9.21111 2.67541 9.87659 2.5Z" fill="white"/>
</svg>
