<svg width="16" height="16" viewBox="0 0 16 16" fill="none" xmlns="http://www.w3.org/2000/svg">
<path d="M12.3229 11.1782C11.8987 11.2796 11.4559 11.3333 11.0007 11.3333C7.87104 11.3333 5.33398 8.79628 5.33398 5.66667C5.33398 5.34436 5.36089 5.02832 5.41259 4.7207C5.38846 4.74391 5.36353 4.76528 5.33728 4.78521C5.15021 4.92722 4.91722 4.97994 4.45124 5.08537L4.02701 5.18136C2.38722 5.55237 1.56733 5.73788 1.37227 6.36516C1.1772 6.99243 1.73615 7.64605 2.85405 8.95329L3.14326 9.29149C3.46093 9.66296 3.61977 9.8487 3.69123 10.0785C3.76268 10.3083 3.73867 10.5561 3.69064 11.0517L3.64692 11.5029C3.4779 13.2471 3.3934 14.1191 3.90408 14.5068C4.41477 14.8945 5.18243 14.541 6.71776 13.8341L7.11498 13.6512C7.55126 13.4503 7.76942 13.3499 8.00065 13.3499C8.23189 13.3499 8.45003 13.4503 8.88633 13.6512L9.28354 13.8341C10.8189 14.541 11.5865 14.8945 12.0972 14.5068C12.6079 14.1191 12.5234 13.2471 12.3544 11.5029L12.3229 11.1782Z" fill="#FFD000"/>
<path opacity="0.5" d="M6.10267 3.60559L5.8842 3.9975C5.64424 4.42797 5.52426 4.6432 5.33719 4.78521C5.36344 4.76529 5.38837 4.74392 5.41249 4.72071C5.3608 5.02833 5.33389 5.34437 5.33389 5.66668C5.33389 8.79629 7.87094 11.3333 11.0006 11.3333C11.4559 11.3333 11.8986 11.2797 12.3228 11.1783L12.3106 11.0517C12.2625 10.5561 12.2385 10.3083 12.31 10.0785C12.3814 9.8487 12.5403 9.66297 12.8579 9.29149L13.1472 8.95329C14.2651 7.64606 14.824 6.99244 14.6289 6.36516C14.4339 5.73789 13.614 5.55238 11.9742 5.18136L11.55 5.08538C11.084 4.97994 10.851 4.92723 10.6639 4.78521C10.4769 4.6432 10.3569 4.42797 10.1169 3.9975L9.89845 3.60559C9.05401 2.09076 8.6318 1.33334 8.00056 1.33334C7.36931 1.33334 6.9471 2.09076 6.10267 3.60559Z" fill="#FFD000"/>
</svg>
