<svg width="16" height="16" viewBox="0 0 16 16" fill="none" xmlns="http://www.w3.org/2000/svg">
<path d="M7.90127 2C8.13464 2.0024 8.36345 2.06597 8.48972 2.28305C9.01587 3.18762 9.41216 4.20781 9.88249 5.14456C10.1801 5.73709 10.6171 5.70647 11.1749 5.77162L12.6261 5.94781C12.9031 5.98208 13.2158 5.99322 13.4817 6.0796C13.6731 6.14188 13.8349 6.26256 13.9266 6.45157C14.0155 6.63508 14.0253 6.84262 13.9468 7.03202C13.7889 7.41247 12.4277 8.69315 12.0453 9.07831C11.8608 9.264 11.6141 9.46997 11.4892 9.7055C11.2494 10.1576 11.9469 12.8099 11.7384 13.4536C11.6713 13.6673 11.5225 13.8428 11.3273 13.9387C10.9473 14.126 10.5325 13.8416 10.2002 13.655C9.8317 13.4493 9.46511 13.24 9.10045 13.0271C8.61598 12.743 8.12481 12.3226 7.56248 12.6119C6.78334 13.0125 6.01838 13.4579 5.23239 13.8425C5.14632 13.8841 5.03299 13.9215 4.93795 13.9273C4.7537 13.9387 4.57283 13.8721 4.43635 13.7426C4.11541 13.4386 4.20485 13.0751 4.26622 12.6845C4.35908 12.0933 4.37044 11.4307 4.64878 10.8924C4.96531 10.2802 5.60354 9.99586 6.16911 9.69419L7.49683 8.99015C7.68587 8.89101 8.33949 8.61687 8.32272 8.3764C8.19262 8.24049 7.59842 8.3785 7.39659 8.40907L5.83971 8.64547C5.3529 8.71913 4.75221 8.84541 4.26904 8.7872C3.71038 8.69195 3.21496 8.24219 2.79131 7.88625C2.54201 7.65314 2.08187 7.36909 2.01852 6.99346C1.86795 6.10062 2.66861 6.06198 3.22242 5.988L4.76503 5.78377C5.91188 5.63331 5.76486 5.73922 6.2914 4.6418L6.97878 3.20849C7.20846 2.72942 7.36889 2.14033 7.90127 2Z" fill="#87ADF0"/>
</svg>
