<svg width="16" height="16" viewBox="0 0 16 16" fill="none" xmlns="http://www.w3.org/2000/svg">
<path opacity="0.5" d="M14.6668 8.00001C14.6668 11.6819 11.6821 14.6667 8.00016 14.6667C4.31826 14.6667 1.3335 11.6819 1.3335 8.00001C1.3335 4.31811 4.31826 1.33334 8.00016 1.33334C11.6821 1.33334 14.6668 4.31811 14.6668 8.00001Z" fill="#87ADF0"/>
<path d="M6.94166 5.66527L7.05089 5.46932C7.47311 4.7119 7.68422 4.33319 7.99984 4.33319C8.31546 4.33319 8.52657 4.7119 8.94878 5.46932L9.05802 5.66528C9.178 5.8805 9.23799 5.98812 9.33152 6.05913C9.42506 6.13013 9.54155 6.15649 9.77454 6.20921L9.98666 6.2572C10.8066 6.44271 11.2165 6.53546 11.314 6.8491C11.4116 7.16274 11.1321 7.48955 10.5731 8.14317L10.4285 8.31227C10.2697 8.498 10.1903 8.59087 10.1545 8.70576C10.1188 8.82065 10.1308 8.94456 10.1548 9.19238L10.1767 9.41799C10.2612 10.2901 10.3035 10.7261 10.0481 10.9199C9.79278 11.1138 9.40895 10.937 8.64128 10.5836L8.44268 10.4921C8.22453 10.3917 8.11545 10.3415 7.99984 10.3415C7.88422 10.3415 7.77515 10.3917 7.557 10.4921L7.35839 10.5836C6.59073 10.937 6.20689 11.1138 5.95155 10.9199C5.69621 10.7261 5.73846 10.2901 5.82297 9.41799L5.84483 9.19238C5.86885 8.94456 5.88085 8.82065 5.84512 8.70576C5.8094 8.59087 5.72998 8.498 5.57114 8.31227L5.42654 8.14317C4.86759 7.48955 4.58811 7.16274 4.68564 6.8491C4.78318 6.53547 5.19313 6.44271 6.01302 6.2572L6.22513 6.20921C6.45812 6.15649 6.57461 6.13013 6.66815 6.05913C6.76169 5.98812 6.82168 5.8805 6.94166 5.66527Z" fill="#87ADF0"/>
</svg>
