<svg width="20" height="20" viewBox="0 0 20 20" fill="none" xmlns="http://www.w3.org/2000/svg">
<path d="M15.4032 13.9723C14.8729 14.0991 14.3194 14.1662 13.7503 14.1662C9.83831 14.1662 6.66699 10.9949 6.66699 7.08285C6.66699 6.67996 6.70063 6.28492 6.76525 5.90039C6.73509 5.9294 6.70393 5.95611 6.67111 5.98102C6.43727 6.15854 6.14603 6.22443 5.56356 6.35622L5.03327 6.47621C2.98354 6.93998 1.95867 7.17187 1.71484 7.95596C1.47101 8.74005 2.1697 9.55708 3.56707 11.1911L3.92859 11.6139C4.32568 12.0782 4.52422 12.3104 4.61354 12.5976C4.70286 12.8848 4.67285 13.1946 4.61281 13.8141L4.55816 14.3782C4.34689 16.5584 4.24126 17.6484 4.87962 18.133C5.51797 18.6176 6.47755 18.1758 8.39671 17.2922L8.89323 17.0635C9.43859 16.8124 9.71128 16.6869 10.0003 16.6869C10.2894 16.6869 10.5621 16.8124 11.1074 17.0635L11.6039 17.2922C13.5231 18.1758 14.4827 18.6176 15.121 18.133C15.7594 17.6484 15.6538 16.5583 15.4425 14.3782L15.4032 13.9723Z" fill="#FF4973"/>
<path opacity="0.5" d="M7.62784 4.50731L7.35476 4.99719C7.05481 5.53527 6.90484 5.80431 6.67099 5.98183C6.70381 5.95692 6.73497 5.93021 6.76513 5.9012C6.70051 6.28573 6.66687 6.68077 6.66687 7.08366C6.66687 10.9957 9.83819 14.167 13.7502 14.167C14.3193 14.167 14.8728 14.0999 15.403 13.9731L15.3877 13.815C15.3277 13.1954 15.2977 12.8857 15.387 12.5984C15.4763 12.3112 15.6749 12.079 16.0719 11.6147L16.4335 11.1919C17.8308 9.55789 18.5295 8.74086 18.2857 7.95677C18.0419 7.17267 17.017 6.94079 14.9673 6.47702L14.437 6.35703C13.8545 6.22524 13.5633 6.15935 13.3294 5.98183C13.0956 5.80432 12.9456 5.53527 12.6457 4.99719L12.3726 4.5073C11.317 2.61376 10.7893 1.66699 10.0002 1.66699C9.21116 1.66699 8.68338 2.61377 7.62784 4.50731Z" fill="#FF4973"/>
</svg>
