<svg width="16" height="16" viewBox="0 0 16 16" fill="none" xmlns="http://www.w3.org/2000/svg">
<path d="M12.3224 11.1782C11.8982 11.2796 11.4555 11.3333 11.0002 11.3333C7.87055 11.3333 5.3335 8.79628 5.3335 5.66667C5.3335 5.34436 5.36041 5.02832 5.4121 4.7207C5.38797 4.74391 5.36304 4.76528 5.33679 4.78521C5.14972 4.92722 4.91673 4.97994 4.45075 5.08537L4.02652 5.18136C2.38673 5.55237 1.56684 5.73788 1.37178 6.36516C1.17671 6.99243 1.73566 7.64605 2.85356 8.95329L3.14277 9.29149C3.46044 9.66296 3.61928 9.8487 3.69074 10.0785C3.76219 10.3083 3.73818 10.5561 3.69015 11.0517L3.64643 11.5029C3.47742 13.2471 3.39291 14.1191 3.90359 14.5068C4.41428 14.8945 5.18194 14.541 6.71727 13.8341L7.11449 13.6512C7.55078 13.4503 7.76893 13.3499 8.00016 13.3499C8.2314 13.3499 8.44954 13.4503 8.88584 13.6512L9.28305 13.8341C10.8184 14.541 11.586 14.8945 12.0967 14.5068C12.6074 14.1191 12.5229 13.2471 12.3539 11.5029L12.3224 11.1782Z" fill="#87ADF0"/>
<path opacity="0.5" d="M6.10218 3.6055L5.88371 3.99741C5.64375 4.42788 5.52377 4.64311 5.3367 4.78512C5.36295 4.76519 5.38788 4.74383 5.41201 4.72062C5.36031 5.02824 5.3334 5.34427 5.3334 5.66659C5.3334 8.7962 7.87045 11.3333 11.0001 11.3333C11.4554 11.3333 11.8981 11.2796 12.3223 11.1782L12.3101 11.0516C12.2621 10.556 12.238 10.3082 12.3095 10.0784C12.3809 9.84861 12.5398 9.66288 12.8575 9.2914L13.1467 8.9532C14.2646 7.64597 14.8235 6.99235 14.6285 6.36507C14.4334 5.7378 13.6135 5.55229 11.9737 5.18127L11.5495 5.08528C11.0835 4.97985 10.8505 4.92714 10.6634 4.78512C10.4764 4.64311 10.3564 4.42788 10.1164 3.99741L9.89796 3.6055C9.05353 2.09067 8.63131 1.33325 8.00007 1.33325C7.36883 1.33325 6.94661 2.09067 6.10218 3.6055Z" fill="#87ADF0"/>
</svg>
