<svg width="20" height="20" viewBox="0 0 20 20" fill="none" xmlns="http://www.w3.org/2000/svg">
<g opacity="0.3" clip-path="url(#clip0_34_4910)">
<path d="M4.16699 4.97127H6.79199M10.0003 4.97127H8.54199M6.79199 4.97127H8.54199M6.79199 4.97127V4.16667M8.54199 4.97127C8.23429 6.07161 7.58994 7.11176 6.85449 8.02587M4.97949 10C5.57402 9.45331 6.24549 8.7828 6.85449 8.02587M6.85449 8.02587C6.47949 7.58621 5.95449 6.87487 5.80449 6.55304M6.85449 8.02587L7.97949 9.19541" stroke="white" stroke-width="1.5" stroke-linecap="round" stroke-linejoin="round"/>
<path d="M14.167 5.85253C14.1484 5.85193 14.1484 5.85193 14.1484 5.85193C14.103 4.41848 13.947 3.53928 13.4104 2.88536C13.2718 2.71658 13.1171 2.56182 12.9483 2.4233C12.0263 1.66667 10.6566 1.66667 7.91699 1.66667C5.17742 1.66667 3.80764 1.66667 2.88568 2.4233C2.7169 2.56182 2.56214 2.71658 2.42362 2.88536C1.66699 3.80732 1.66699 5.1771 1.66699 7.91667C1.66699 10.6562 1.66699 12.026 2.42362 12.948C2.56214 13.1168 2.7169 13.2715 2.88568 13.41C3.5396 13.9467 4.4188 14.1027 5.85225 14.1481C5.89761 15.5815 6.05363 16.4607 6.59029 17.1146C6.7288 17.2834 6.88357 17.4382 7.05235 17.5767C7.97431 18.3333 9.34409 18.3333 12.0837 18.3333C14.8232 18.3333 16.193 18.3333 17.115 17.5767C17.2837 17.4382 17.4385 17.2834 17.577 17.1146C18.3337 16.1927 18.3337 14.8229 18.3337 12.0833C18.3337 9.34377 18.3337 7.97399 17.577 7.05203C17.4385 6.88325 17.2837 6.72848 17.115 6.58997C16.4639 6.05564 15.5895 5.89865 14.167 5.85253ZM5.85225 14.1481L14.167 5.85253" stroke="white" stroke-width="1.5"/>
<path d="M14.3052 14.1667L12.9163 10.8333L11.5275 14.1667L10.833 15.8333M14.9997 15.8333L14.3052 14.1667M11.5275 14.1667H14.3052" stroke="white" stroke-width="1.5" stroke-linecap="round" stroke-linejoin="round"/>
</g>
<defs>
<clipPath id="clip0_34_4910">
<rect width="20" height="20" fill="white"/>
</clipPath>
</defs>
</svg>
