<svg width="20" height="20" viewBox="0 0 20 20" fill="none" xmlns="http://www.w3.org/2000/svg">
<path d="M2.29199 5.13888C2.29199 4.75536 2.57981 4.44445 2.93485 4.44445L5.15505 4.44407C5.59618 4.432 5.98534 4.129 6.13544 3.68075C6.13939 3.66896 6.14393 3.65443 6.1602 3.60168L6.25587 3.2916C6.31441 3.10148 6.36541 2.93584 6.43678 2.78779C6.71873 2.2029 7.24039 1.79674 7.84322 1.69276C7.9958 1.66643 8.15739 1.66655 8.34288 1.66667H11.2413C11.4267 1.66655 11.5883 1.66643 11.7409 1.69276C12.3437 1.79674 12.8654 2.2029 13.1473 2.78779C13.2187 2.93584 13.2697 3.10148 13.3283 3.2916L13.4239 3.60168C13.4402 3.65443 13.4447 3.66896 13.4487 3.68075C13.5988 4.129 14.0651 4.43237 14.5063 4.44445H16.6491C17.0042 4.44445 17.292 4.75536 17.292 5.13888C17.292 5.52241 17.0042 5.83332 16.6491 5.83332H2.93485C2.57981 5.83332 2.29199 5.52241 2.29199 5.13888Z" fill="#FF4973"/>
<path opacity="0.5" d="M9.67198 18.3332H10.3278C12.584 18.3332 13.7121 18.3332 14.4456 17.6138C15.1791 16.8945 15.2541 15.7145 15.4042 13.3546L15.6205 9.95419C15.7019 8.67372 15.7426 8.03349 15.3747 7.62778C15.0067 7.22208 14.3853 7.22208 13.1425 7.22208H6.85722C5.61443 7.22208 4.99304 7.22208 4.62507 7.62778C4.2571 8.03349 4.29782 8.67373 4.37925 9.95419L4.59551 13.3546C4.74559 15.7145 4.82063 16.8945 5.55412 17.6138C6.28761 18.3332 7.41574 18.3332 9.67198 18.3332Z" fill="#FF4973"/>
</svg>
