<svg width="20" height="20" viewBox="0 0 20 20" fill="none" xmlns="http://www.w3.org/2000/svg">
<path opacity="0.5" d="M9.67198 18.3333H10.3278C12.584 18.3333 13.7121 18.3333 14.4456 17.614C15.1791 16.8947 15.2541 15.7147 15.4042 13.3548L15.6205 9.95434C15.7019 8.67388 15.7426 8.03365 15.3747 7.62794C15.0067 7.22223 14.3853 7.22223 13.1425 7.22223H6.85722C5.61443 7.22223 4.99304 7.22223 4.62507 7.62794C4.2571 8.03365 4.29782 8.67388 4.37925 9.95434L4.59551 13.3548C4.74559 15.7147 4.82063 16.8947 5.55412 17.614C6.28761 18.3333 7.41574 18.3333 9.67198 18.3333Z" fill="white" fill-opacity="0.4"/>
<path d="M2.5 5.4365C2.5 5.10776 2.77226 4.84126 3.10811 4.84126H7.09823C7.10364 4.14024 7.17962 3.17919 7.87531 2.51389C8.4228 1.99031 9.1734 1.66666 9.99999 1.66666C10.8266 1.66666 11.5772 1.99031 12.1247 2.51389C12.8204 3.17919 12.8963 4.14024 12.9018 4.84126H16.8919C17.2277 4.84126 17.5 5.10776 17.5 5.4365C17.5 5.76524 17.2277 6.03174 16.8919 6.03174H3.10811C2.77226 6.03174 2.5 5.76524 2.5 5.4365Z" fill="white" fill-opacity="0.4"/>
</svg>
