<svg width="20" height="20" viewBox="0 0 20 20" fill="none" xmlns="http://www.w3.org/2000/svg">
<path d="M2.29199 5.13898C2.29199 4.75545 2.57981 4.44454 2.93485 4.44454L5.15505 4.44417C5.59618 4.43209 5.98534 4.12909 6.13544 3.68084C6.13939 3.66906 6.14393 3.65452 6.1602 3.60177L6.25587 3.29169C6.31441 3.10157 6.36541 2.93594 6.43678 2.78789C6.71873 2.20299 7.24039 1.79683 7.84322 1.69285C7.9958 1.66653 8.15739 1.66664 8.34288 1.66677H11.2413C11.4267 1.66664 11.5883 1.66653 11.7409 1.69285C12.3437 1.79683 12.8654 2.20299 13.1473 2.78789C13.2187 2.93594 13.2697 3.10157 13.3283 3.29169L13.4239 3.60177C13.4402 3.65452 13.4447 3.66906 13.4487 3.68084C13.5988 4.12909 14.0651 4.43246 14.5063 4.44454H16.6491C17.0042 4.44454 17.292 4.75545 17.292 5.13898C17.292 5.5225 17.0042 5.83341 16.6491 5.83341H2.93485C2.57981 5.83341 2.29199 5.5225 2.29199 5.13898Z" fill="#87ADF0"/>
<path opacity="0.5" d="M9.67198 18.3333H10.3278C12.584 18.3333 13.7121 18.3333 14.4456 17.6139C15.1791 16.8946 15.2541 15.7146 15.4042 13.3547L15.6205 9.95428C15.7019 8.67382 15.7426 8.03358 15.3747 7.62788C15.0067 7.22217 14.3853 7.22217 13.1425 7.22217H6.85722C5.61443 7.22217 4.99304 7.22217 4.62507 7.62788C4.2571 8.03358 4.29782 8.67382 4.37925 9.95428L4.59551 13.3547C4.74559 15.7146 4.82063 16.8946 5.55412 17.6139C6.28761 18.3333 7.41574 18.3333 9.67198 18.3333Z" fill="#87ADF0"/>
</svg>
