<svg width="16" height="16" viewBox="0 0 16 16" fill="none" xmlns="http://www.w3.org/2000/svg">
<path d="M8.00016 2.66659C8.00016 1.93021 8.59712 1.33325 9.3335 1.33325C10.0699 1.33325 10.6668 1.93021 10.6668 2.66659C10.6668 3.40296 10.0699 3.99992 9.3335 3.99992C8.59712 3.99992 8.00016 3.40297 8.00016 2.66659Z" fill="white" fill-opacity="0.3"/>
<path d="M8.00016 6.66658C8.73654 6.66658 9.3335 7.26354 9.3335 7.99992C9.3335 8.7363 8.73654 9.33325 8.00016 9.33325C7.26378 9.33325 6.66683 8.7363 6.66683 7.99992C6.66683 7.26354 7.26378 6.66658 8.00016 6.66658Z" fill="white" fill-opacity="0.3"/>
<path d="M6.66683 11.9999C7.40321 11.9999 8.00016 12.5969 8.00016 13.3333C8.00016 14.0696 7.40321 14.6666 6.66683 14.6666C5.93045 14.6666 5.3335 14.0696 5.3335 13.3333C5.3335 12.5969 5.93045 11.9999 6.66683 11.9999Z" fill="white" fill-opacity="0.3"/>
<g opacity="0.5">
<path d="M9.23658 8.50008C9.29908 8.34568 9.3335 8.1769 9.3335 8.00008C9.3335 7.82326 9.29908 7.65449 9.23658 7.50008L12.6668 7.50008C12.943 7.50008 13.1668 7.72394 13.1668 8.00008C13.1668 8.27622 12.943 8.50008 12.6668 8.50008L9.23658 8.50008Z" fill="white" fill-opacity="0.3"/>
<path d="M6.76375 7.50008C6.70125 7.65449 6.66683 7.82326 6.66683 8.00008C6.66683 8.1769 6.70125 8.34568 6.76375 8.50008H3.3335C3.05735 8.50008 2.8335 8.27622 2.8335 8.00008C2.8335 7.72394 3.05735 7.50008 3.3335 7.50008H6.76375Z" fill="white" fill-opacity="0.3"/>
<path d="M7.90324 12.8334C7.96574 12.9878 8.00016 13.1566 8.00016 13.3334C8.00016 13.5102 7.96574 13.679 7.90324 13.8334H12.6668C12.943 13.8334 13.1668 13.6096 13.1668 13.3334C13.1668 13.0573 12.943 12.8334 12.6668 12.8334H7.90324Z" fill="white" fill-opacity="0.3"/>
<path d="M5.43042 12.8334H3.3335C3.05735 12.8334 2.8335 13.0573 2.8335 13.3334C2.8335 13.6096 3.05735 13.8334 3.3335 13.8334H5.43042C5.36791 13.679 5.3335 13.5102 5.3335 13.3334C5.3335 13.1566 5.36791 12.9878 5.43042 12.8334Z" fill="white" fill-opacity="0.3"/>
<path d="M10.5699 3.16675C10.6324 3.01234 10.6668 2.84357 10.6668 2.66675C10.6668 2.48993 10.6324 2.32115 10.5699 2.16675L12.6668 2.16675C12.943 2.16675 13.1668 2.39061 13.1668 2.66675C13.1668 2.94289 12.943 3.16675 12.6668 3.16675L10.5699 3.16675Z" fill="white" fill-opacity="0.3"/>
<path d="M8.09708 3.16675C8.03458 3.01234 8.00016 2.84357 8.00016 2.66675C8.00016 2.48993 8.03458 2.32115 8.09708 2.16675L3.3335 2.16675C3.05735 2.16675 2.8335 2.39061 2.8335 2.66675C2.8335 2.94289 3.05735 3.16675 3.3335 3.16675L8.09708 3.16675Z" fill="white" fill-opacity="0.3"/>
</g>
</svg>
