<svg width="16" height="16" viewBox="0 0 16 16" fill="none" xmlns="http://www.w3.org/2000/svg">
<path d="M10.3332 5.00008C10.3332 6.28875 9.2885 7.33341 7.99984 7.33341C6.71117 7.33341 5.6665 6.28875 5.6665 5.00008C5.6665 3.71142 6.71117 2.66675 7.99984 2.66675C9.2885 2.66675 10.3332 3.71142 10.3332 5.00008Z" fill="#87ADF0"/>
<path opacity="0.4" d="M12.9998 4.99992C12.9998 5.92039 12.2536 6.66658 11.3332 6.66658C10.4127 6.66658 9.6665 5.92039 9.6665 4.99992C9.6665 4.07944 10.4127 3.33325 11.3332 3.33325C12.2536 3.33325 12.9998 4.07944 12.9998 4.99992Z" fill="#87ADF0"/>
<path opacity="0.4" d="M3.00016 4.99992C3.00016 5.92039 3.74636 6.66658 4.66683 6.66658C5.5873 6.66658 6.3335 5.92039 6.3335 4.99992C6.3335 4.07944 5.5873 3.33325 4.66683 3.33325C3.74636 3.33325 3.00016 4.07944 3.00016 4.99992Z" fill="#87ADF0"/>
<path d="M12 11.0001C12 12.2887 10.2091 13.3334 8 13.3334C5.79086 13.3334 4 12.2887 4 11.0001C4 9.71142 5.79086 8.66675 8 8.66675C10.2091 8.66675 12 9.71142 12 11.0001Z" fill="#87ADF0"/>
<path opacity="0.4" d="M14.6668 10.9999C14.6668 11.9204 13.4729 12.6666 12.0002 12.6666C10.5274 12.6666 9.3335 11.9204 9.3335 10.9999C9.3335 10.0794 10.5274 9.33325 12.0002 9.33325C13.4729 9.33325 14.6668 10.0794 14.6668 10.9999Z" fill="#87ADF0"/>
<path opacity="0.4" d="M1.33317 10.9999C1.33317 11.9204 2.52708 12.6666 3.99984 12.6666C5.4726 12.6666 6.6665 11.9204 6.6665 10.9999C6.6665 10.0794 5.4726 9.33325 3.99984 9.33325C2.52708 9.33325 1.33317 10.0794 1.33317 10.9999Z" fill="#87ADF0"/>
</svg>
