<svg width="16" height="16" viewBox="0 0 16 16" fill="none" xmlns="http://www.w3.org/2000/svg">
<circle cx="8.00016" cy="3.99992" r="2.66667" fill="#22E5FF"/>
<path opacity="0.5" d="M12.0633 10.0209C11.7801 10.0001 11.4327 10.0001 11.0002 10.0001C9.90022 10.0001 9.35025 10.0001 9.00854 10.3418C8.66683 10.6835 8.66683 11.2335 8.66683 12.3334C8.66683 13.111 8.66683 13.6137 8.78753 13.9623C8.53157 13.9871 8.26851 14.0001 8.00016 14.0001C5.42283 14.0001 3.3335 12.8062 3.3335 11.3334C3.3335 9.86066 5.42283 8.66675 8.00016 8.66675C9.74245 8.66675 11.2617 9.21234 12.0633 10.0209Z" fill="#22E5FF"/>
<path fill-rule="evenodd" clip-rule="evenodd" d="M10.9998 14.6667C9.89989 14.6667 9.34992 14.6667 9.00821 14.325C8.6665 13.9832 8.6665 13.4333 8.6665 12.3333C8.6665 11.2334 8.6665 10.6834 9.00821 10.3417C9.34992 10 9.89989 10 10.9998 10C12.0998 10 12.6498 10 12.9915 10.3417C13.3332 10.6834 13.3332 11.2334 13.3332 12.3333C13.3332 13.4333 13.3332 13.9832 12.9915 14.325C12.6498 14.6667 12.0998 14.6667 10.9998 14.6667ZM11.3887 11.2963C11.3887 11.0815 11.2146 10.9074 10.9998 10.9074C10.7851 10.9074 10.6109 11.0815 10.6109 11.2963V11.9444H9.9628C9.74802 11.9444 9.57391 12.1186 9.57391 12.3333C9.57391 12.5481 9.74802 12.7222 9.9628 12.7222H10.6109V13.3704C10.6109 13.5851 10.7851 13.7593 10.9998 13.7593C11.2146 13.7593 11.3887 13.5851 11.3887 13.3704V12.7222H12.0369C12.2517 12.7222 12.4258 12.5481 12.4258 12.3333C12.4258 12.1186 12.2517 11.9444 12.0369 11.9444H11.3887V11.2963Z" fill="#22E5FF"/>
</svg>
