<svg width="20" height="20" viewBox="0 0 20 20" fill="none" xmlns="http://www.w3.org/2000/svg">
<circle cx="10.0003" cy="5.00008" r="3.33333" fill="#87ADF0"/>
<path fill-rule="evenodd" clip-rule="evenodd" d="M13.7497 18.3333C12.3747 18.3333 11.6873 18.3333 11.2601 17.9062C10.833 17.4791 10.833 16.7916 10.833 15.4167C10.833 14.0417 10.833 13.3543 11.2601 12.9271C11.6873 12.5 12.3747 12.5 13.7497 12.5C15.1246 12.5 15.8121 12.5 16.2392 12.9271C16.6663 13.3543 16.6663 14.0417 16.6663 15.4167C16.6663 16.7916 16.6663 17.4791 16.2392 17.9062C15.8121 18.3333 15.1246 18.3333 13.7497 18.3333ZM15.3897 14.7882C15.5795 14.5983 15.5795 14.2906 15.3897 14.1007C15.1999 13.9109 14.8921 13.9109 14.7022 14.1007L13.1015 15.7014L12.7971 15.397C12.6073 15.2072 12.2995 15.2072 12.1096 15.397C11.9198 15.5868 11.9198 15.8946 12.1096 16.0845L12.7578 16.7326C12.9476 16.9225 13.2554 16.9225 13.4453 16.7326L15.3897 14.7882Z" fill="#87ADF0"/>
<path opacity="0.5" d="M15.0793 12.5259C14.7253 12.4999 14.2909 12.4999 13.7503 12.4999C12.3754 12.4999 11.6879 12.4999 11.2608 12.9271C10.8337 13.3542 10.8337 14.0417 10.8337 15.4166C10.8337 16.3885 10.8337 17.0169 10.9845 17.4527C10.6646 17.4837 10.3358 17.4999 10.0003 17.4999C6.77866 17.4999 4.16699 16.0075 4.16699 14.1666C4.16699 12.3256 6.77866 10.8333 10.0003 10.8333C12.1782 10.8333 14.0773 11.5152 15.0793 12.5259Z" fill="#87ADF0"/>
</svg>
