<svg width="20" height="20" viewBox="0 0 20 20" fill="none" xmlns="http://www.w3.org/2000/svg">
<circle cx="9.99935" cy="4.99999" r="3.33333" fill="#87ADF0"/>
<path fill-rule="evenodd" clip-rule="evenodd" d="M11.2611 17.9062C11.6883 18.3333 12.3757 18.3333 13.7507 18.3333C15.1256 18.3333 15.813 18.3333 16.2402 17.9062C16.6673 17.4791 16.6673 16.7916 16.6673 15.4167C16.6673 14.0417 16.6673 13.3543 16.2402 12.9271C15.813 12.5 15.1256 12.5 13.7507 12.5C12.3757 12.5 11.6883 12.5 11.2611 12.9271C10.834 13.3543 10.834 14.0417 10.834 15.4167C10.834 16.7916 10.834 17.4791 11.2611 17.9062ZM13.2645 14.9306H12.4544C12.1859 14.9306 11.9682 15.1482 11.9682 15.4167C11.9682 15.6851 12.1859 15.9028 12.4544 15.9028H13.2645H14.2368H15.0469C15.3154 15.9028 15.5331 15.6851 15.5331 15.4167C15.5331 15.1482 15.3154 14.9306 15.0469 14.9306H14.2368H13.2645Z" fill="#87ADF0"/>
<path opacity="0.5" d="M15.0783 12.526C14.7243 12.5 14.29 12.5 13.7493 12.5C12.3744 12.5 11.687 12.5 11.2598 12.9271C10.8327 13.3543 10.8327 14.0417 10.8327 15.4167C10.8327 16.3886 10.8327 17.017 10.9836 17.4528C10.6636 17.4838 10.3348 17.5 9.99935 17.5C6.77769 17.5 4.16602 16.0076 4.16602 14.1667C4.16602 12.3257 6.77769 10.8333 9.99935 10.8333C12.1772 10.8333 14.0763 11.5153 15.0783 12.526Z" fill="#87ADF0"/>
</svg>
