<svg width="16" height="16" viewBox="0 0 16 16" fill="none" xmlns="http://www.w3.org/2000/svg">
<rect width="16" height="16" rx="8" fill="url(#paint0_linear_62_44448)" fill-opacity="0.3"/>
<rect x="0.5" y="0.5" width="15" height="15" rx="7.5" stroke="url(#paint1_linear_62_44448)" stroke-opacity="0.1"/>
<path d="M5.0531 4.40357C5.51568 4.41715 6.04448 4.40499 6.51109 4.40503L10.4321 4.40462C10.6148 4.40451 10.851 4.39306 11.026 4.41379C11.7893 4.5042 12.2995 5.39734 12.0221 6.10541C11.9541 6.27894 11.8213 6.45565 11.7196 6.60661L9.75744 9.53542L9.05979 9.53574C8.5876 9.53732 8.11542 9.53658 7.64323 9.53353L8.84646 7.73777C9.0579 7.42334 9.27513 7.10519 9.48099 6.78716C9.51007 6.74225 9.55748 6.64413 9.55927 6.5927C9.56359 6.46136 9.5147 6.33385 9.42379 6.2389C9.35836 6.17125 9.27777 6.1325 9.18464 6.12689C8.99711 6.1156 8.79557 6.12051 8.60709 6.1208L7.54012 6.12188L3.90137 6.12023L4.60816 5.06014C4.75064 4.84722 4.90348 4.6094 5.0531 4.40357Z" fill="#FF4973"/>
<path d="M6.05796 6.97526C6.31024 6.96525 6.61296 6.9732 6.86823 6.97323L8.3455 6.97257L4.92397 12.0711C4.8093 12.2418 4.68148 12.4236 4.57576 12.5986C4.59199 12.449 4.68346 12.0726 4.7187 11.9099L5.4758 8.39441C5.55341 8.03459 5.62874 7.67417 5.70879 7.3149C5.75253 7.1186 5.8517 7.00082 6.05796 6.97526Z" fill="#FF4973"/>
<defs>
<linearGradient id="paint0_linear_62_44448" x1="0" y1="0" x2="17.5211" y2="14.1113" gradientUnits="userSpaceOnUse">
<stop stop-color="#FF4973"/>
<stop offset="0.53259" stop-color="#FF4973" stop-opacity="0.2"/>
<stop offset="1" stop-color="#FF4973"/>
</linearGradient>
<linearGradient id="paint1_linear_62_44448" x1="-3.02224e-07" y1="1.25714" x2="15.8686" y2="14.2862" gradientUnits="userSpaceOnUse">
<stop stop-color="white"/>
<stop offset="0.418269" stop-color="white" stop-opacity="0"/>
<stop offset="0.668269" stop-color="white" stop-opacity="0.1"/>
<stop offset="1" stop-color="white"/>
</linearGradient>
</defs>
</svg>
