<svg width="20" height="20" viewBox="0 0 20 20" fill="none" xmlns="http://www.w3.org/2000/svg">
<path d="M18.1509 2.94194C18.395 2.69786 18.395 2.30214 18.1509 2.05806C17.9069 1.81398 17.5111 1.81398 17.267 2.05806L13.5594 5.76572C13.5211 5.32944 13.4712 4.94331 13.3981 4.60814C13.255 3.95112 13.0009 3.37985 12.4681 3.00538C12.2722 2.86773 12.0541 2.75674 11.8276 2.67942C11.1457 2.44675 10.468 2.63274 9.77966 2.96713C9.10169 3.29647 8.27908 3.83886 7.25335 4.51519L7.03105 4.66176C6.65779 4.90787 6.52939 4.99013 6.39659 5.04873C6.25441 5.11148 6.10499 5.15631 5.95175 5.18218C5.80862 5.20635 5.65615 5.20836 5.20905 5.20836L5.07487 5.20831C4.06077 5.20778 3.35614 5.20741 2.72978 5.4972C2.15078 5.76508 1.5935 6.28943 1.29089 6.85107C0.963703 7.4583 0.925312 8.09334 0.870724 8.99628L0.864133 9.105C0.845429 9.41189 0.833984 9.71538 0.833984 10C0.833984 10.2847 0.845429 10.5882 0.864133 10.8951L0.870724 11.0038C0.925312 11.9067 0.963704 12.5418 1.29089 13.149C1.5935 13.7106 2.15078 14.235 2.72978 14.5029C3.23857 14.7383 3.79901 14.7822 4.535 14.7901L2.26704 17.0581C2.02297 17.3021 2.02297 17.6979 2.26704 17.9419C2.51112 18.186 2.90685 18.186 3.15093 17.9419L18.1509 2.94194Z" fill="#87ADF0"/>
<g opacity="0.4">
<path d="M13.532 7.56019L6.34536 14.7469C6.6748 15.1426 7.52176 15.6781 7.78244 15.8335C8.64809 16.4008 9.36455 16.8541 9.97536 17.1243C10.5939 17.3979 11.2086 17.5317 11.8269 17.3207C12.0535 17.2434 12.2716 17.1324 12.4674 16.9948C13.0558 16.5813 13.3049 15.9279 13.4398 15.1784C13.5725 14.4414 13.6178 13.4648 13.6744 12.2482L13.6766 12.2003C13.7198 11.2711 13.75 10.4601 13.75 10.0001C13.75 9.97741 13.7501 9.94687 13.7503 9.90962C13.7527 9.4371 13.7604 7.88558 13.532 7.56019Z" fill="#87ADF0"/>
<path d="M17.0954 5.26379C17.41 5.12183 17.7802 5.26181 17.9221 5.57645C18.3113 6.43907 18.75 7.8831 18.75 10.0001C18.75 11.8264 18.4235 13.1525 18.0833 14.037C17.9135 14.4785 17.7411 14.8078 17.6062 15.0326C17.5388 15.145 17.4808 15.2312 17.4373 15.2921C17.4155 15.3226 17.3974 15.3467 17.3835 15.3647C17.3765 15.3737 17.3706 15.3812 17.3659 15.3871L17.3596 15.3948L17.3572 15.3978L17.3561 15.3991C17.3561 15.3991 17.3551 15.4002 16.8762 15.0011L17.3551 15.4002C17.1342 15.6654 16.7401 15.7012 16.4749 15.4803C16.211 15.2603 16.1742 14.869 16.3917 14.6039L16.3946 14.6001L16.403 14.589C16.4075 14.583 16.4133 14.5752 16.4201 14.5656C16.4449 14.5308 16.4846 14.4724 16.5344 14.3895C16.6338 14.2237 16.774 13.9593 16.9167 13.5883C17.2015 12.8477 17.5 11.6738 17.5 10.0001C17.5 8.06151 17.0995 6.79261 16.7827 6.09053C16.6408 5.77589 16.7807 5.40575 17.0954 5.26379Z" fill="#87ADF0"/>
<path d="M16.084 8.2064C16.0138 7.86843 15.683 7.65133 15.345 7.7215C15.007 7.79167 14.7899 8.12253 14.8601 8.4605C14.9338 8.8157 15 9.32285 15 10.0001C15 10.825 14.9019 11.3977 14.8112 11.7511C14.7659 11.928 14.7222 12.0508 14.6931 12.1235C14.6786 12.1598 14.6677 12.1838 14.6619 12.1958L14.6578 12.2043C14.4962 12.5048 14.6056 12.8803 14.9048 13.0465C15.2065 13.2141 15.587 13.1054 15.7547 12.8036L15.2092 12.5006C15.7547 12.8036 15.7553 12.8026 15.7553 12.8026L15.7559 12.8014L15.7573 12.7989L15.7605 12.7929L15.7685 12.7776C15.7746 12.7659 15.782 12.7511 15.7905 12.7332C15.8076 12.6973 15.8292 12.649 15.8537 12.5877C15.9028 12.4651 15.9633 12.291 16.0221 12.0616C16.1398 11.6025 16.25 10.9252 16.25 10.0001C16.25 9.2409 16.1758 8.64846 16.084 8.2064Z" fill="#87ADF0"/>
</g>
</svg>
