<svg width="20" height="20" viewBox="0 0 20 20" fill="none" xmlns="http://www.w3.org/2000/svg">
<path opacity="0.4" d="M7.70204 1.0415C6.87324 1.0415 6.07838 1.37074 5.49233 1.9568L1.9568 5.49233C1.37074 6.07838 1.0415 6.87324 1.0415 7.70204V12.2976C1.0415 13.1264 1.37074 13.9213 1.9568 14.5073L5.49233 18.0429C6.07838 18.6289 6.87324 18.9582 7.70204 18.9582H12.2976C13.1264 18.9582 13.9213 18.6289 14.5073 18.0429L18.0429 14.5073C18.6289 13.9213 18.9582 13.1264 18.9582 12.2976V7.70204C18.9582 6.87324 18.6289 6.07838 18.0429 5.49233L14.5073 1.9568C13.9213 1.37074 13.1264 1.0415 12.2976 1.0415H7.70204Z" fill="#FF4973"/>
<path d="M7.05806 12.0581C6.81398 12.3021 6.81398 12.6979 7.05806 12.9419C7.30214 13.186 7.69786 13.186 7.94194 12.9419L10 10.8839L12.0581 12.9419C12.3021 13.186 12.6979 13.186 12.9419 12.9419C13.186 12.6979 13.186 12.3021 12.9419 12.0581L10.8839 10L12.9419 7.94194C13.186 7.69786 13.186 7.30214 12.9419 7.05806C12.6979 6.81398 12.3021 6.81398 12.0581 7.05806L10 9.11612L7.94195 7.05807C7.69787 6.81399 7.30214 6.81399 7.05807 7.05807C6.81399 7.30214 6.81399 7.69787 7.05807 7.94195L9.11612 10L7.05806 12.0581Z" fill="#FF4973"/>
</svg>
